<?xml version="1.0" encoding="UTF-8" standalone="no"?><svg width="90" height="28" viewBox="0 0 90 28" fill="none" xmlns="http://www.w3.org/2000/svg">
<g clip-path="url(#clip0_139_846)">
<path d="M20.5291 7.15034V15.5054C20.5291 15.6409 20.4758 15.7707 20.3808 15.8665C20.2859 15.9623 20.1571 16.0161 20.0228 16.0161H17.4077C17.2734 16.016 17.1447 15.9622 17.0497 15.8664C16.9548 15.7707 16.9014 15.6408 16.9014 15.5054V1.91547C16.9014 1.78004 16.9547 1.65015 17.0497 1.55438C17.1446 1.45862 17.2734 1.40482 17.4077 1.40482H19.8277C19.962 1.40482 20.0908 1.45862 20.1857 1.55438C20.2807 1.65015 20.334 1.78004 20.334 1.91547V3.82929C20.334 3.82929 21.1991 1.09928 23.7665 1.09928C23.7665 1.09928 26.3059 0.789693 27.3384 3.63228C27.3384 3.63228 28.2035 1.09928 30.8267 1.09928C30.8267 1.09928 34.7277 0.865345 34.7277 4.93639L34.7574 7.17849V15.5336C34.7574 15.669 34.704 15.7989 34.6091 15.8947C34.5141 15.9904 34.3854 16.0442 34.2511 16.0442H31.6357C31.5014 16.0442 31.3727 15.9903 31.2778 15.8946C31.1828 15.7988 31.1295 15.669 31.1294 15.5336L31.1055 6.41859C31.1798 4.35458 29.5242 4.50476 29.5242 4.50476C27.4407 4.54236 27.6411 7.17849 27.6411 7.17849V15.5336C27.6411 15.669 27.5878 15.7989 27.4928 15.8947C27.3979 15.9904 27.2691 16.0442 27.1348 16.0442H24.5197C24.3854 16.0442 24.2567 15.9903 24.1617 15.8946C24.0668 15.7988 24.0134 15.669 24.0134 15.5336V6.62483C24.0134 6.62483 24.1663 4.48585 22.3057 4.48585C22.306 4.48585 20.4642 4.24201 20.5291 7.15034ZM87.9399 7.12535V15.4802C87.9399 15.6156 87.8865 15.7455 87.7915 15.8412C87.6966 15.937 87.5679 15.9908 87.4336 15.9909L84.7138 16.044C84.5795 16.0439 84.4507 15.9901 84.3558 15.8944C84.2609 15.7986 84.2075 15.6688 84.2074 15.5333V6.62483C84.2074 6.62483 84.3604 4.48585 82.5 4.48585C82.5 4.48585 80.7232 4.39759 80.7232 7.75128V15.5052C80.7231 15.6406 80.6698 15.7705 80.5748 15.8662C80.4799 15.962 80.3512 16.0158 80.2169 16.0159H77.6015C77.4673 16.0158 77.3385 15.962 77.2436 15.8662C77.1486 15.7705 77.0953 15.6406 77.0952 15.5052V1.91547C77.0953 1.78006 77.1486 1.6502 77.2436 1.55445C77.3385 1.4587 77.4673 1.40488 77.6015 1.40482H80.0215C80.1558 1.40482 80.2846 1.45862 80.3796 1.55438C80.4745 1.65015 80.5279 1.78004 80.5279 1.91547V3.82929C80.5279 3.82929 81.393 1.09928 83.9603 1.09928C83.9603 1.09928 86.7105 0.678466 87.6367 3.57937C87.637 3.57915 87.9399 4.17761 87.9399 7.12535ZM69.0576 1.04299C65.7134 1.04299 63.002 3.88558 63.002 8.67014C63.002 12.8826 65.095 16.2973 69.0576 16.2973C72.797 16.2973 75.1132 12.8826 75.1132 8.67014C75.1132 3.97002 72.4021 1.04299 69.0576 1.04299ZM71.1684 8.83901C71.1684 10.6403 70.9452 11.5972 70.9452 11.5972C70.6275 13.5013 69.257 13.504 69.0549 13.4939C68.8368 13.5027 67.4547 13.4828 67.1687 11.5972C67.1687 11.5972 66.9455 10.6403 66.9455 8.83901V8.53888C66.9455 6.73763 67.1687 5.78072 67.1687 5.78072C67.4547 3.89504 68.8371 3.87523 69.0549 3.88378C69.257 3.87365 70.6275 3.87613 70.9452 5.78072C70.9452 5.78072 71.1684 6.73763 71.1684 8.53888V8.83901ZM61.4842 3.81038V1.86053C61.4841 1.72512 61.4307 1.59527 61.3358 1.49951C61.2409 1.40376 61.1121 1.34994 60.9778 1.34988H52.3337C52.1994 1.34988 52.0706 1.40368 51.9757 1.49945C51.8807 1.59521 51.8274 1.7251 51.8274 1.86053V3.7953C51.8274 3.93071 51.8808 4.06056 51.9757 4.15632C52.0707 4.25207 52.1994 4.30589 52.3337 4.30595H56.8426L51.5057 12.1144C51.5057 12.1144 51.2954 12.4309 51.3023 12.7806V15.1558C51.3023 15.1558 51.2675 15.9701 52.1832 15.4975C52.1832 15.4975 53.8098 14.5064 56.5372 14.5064C56.5372 14.5064 59.2307 14.4726 61.0265 15.5829C61.0265 15.5829 61.7719 15.9247 61.7719 15.1731V13.1057C61.7719 13.1057 61.8396 12.5586 61.1281 12.217C61.1281 12.217 59.0613 11.0723 56.3508 11.2601L61.4842 3.81038ZM14.883 13.5857L14.0643 12.3289C13.8038 11.8597 13.8226 11.3342 13.8226 11.3342V5.53665C13.9342 0.526936 8.42733 0.958559 8.42733 0.958559C3.53195 0.958559 2.80885 4.80084 2.80885 4.80084C2.6048 5.57335 3.1982 5.59204 3.1982 5.59204L5.5903 5.83678C5.5903 5.83678 5.99817 5.9309 6.14663 5.44118C6.14663 5.44118 6.46163 3.7649 8.22328 3.7649C10.1401 3.7649 10.1202 5.42407 10.1202 5.42407V6.81306C6.29375 6.94207 4.52049 8.01336 4.52049 8.01336C2.15786 9.3643 2.30655 12.0475 2.30655 12.0475C2.30655 16.4191 6.43663 16.2313 6.43663 16.2313C9.07832 16.2313 10.6411 14.2801 10.6411 14.2801C11.1061 15.106 11.962 15.8936 11.962 15.8936C12.3902 16.3619 12.8365 15.9688 12.8365 15.9688L14.7714 14.299C15.1991 13.9798 14.883 13.5857 14.883 13.5857ZM7.72588 13.5317C6.48329 13.5317 6.02139 12.2864 6.22767 11.0624C6.43417 9.83848 7.50666 8.87661 10.1204 8.90476V9.6489C10.2131 12.8997 8.76019 13.5317 7.72588 13.5317ZM49.6351 13.5857L48.8166 12.3289C48.5561 11.8597 48.5746 11.3342 48.5746 11.3342V5.53665C48.6863 0.526936 43.1794 0.958559 43.1794 0.958559C38.284 0.958559 37.5609 4.80084 37.5609 4.80084C37.3569 5.57335 37.9503 5.59204 37.9503 5.59204L40.3424 5.83678C40.3424 5.83678 40.7503 5.9309 40.8987 5.44118C40.8987 5.44118 41.2137 3.7649 42.9754 3.7649C44.8922 3.7649 44.8723 5.42407 44.8723 5.42407V6.81306C41.0461 6.94207 39.2726 8.01336 39.2726 8.01336C36.9099 9.3643 37.0586 12.0475 37.0586 12.0475C37.0586 16.4191 41.1887 16.2313 41.1887 16.2313C43.8304 16.2313 45.3931 14.2801 45.3931 14.2801C45.8584 15.106 46.7139 15.8936 46.7139 15.8936C47.1421 16.3619 47.5886 15.9688 47.5886 15.9688L49.5232 14.299C49.9512 13.9798 49.6351 13.5857 49.6351 13.5857ZM42.478 13.5317C41.2354 13.5317 40.7735 12.2864 40.9798 11.0624C41.1863 9.83848 42.2587 8.87661 44.8723 8.90476V9.6489C44.9652 12.8997 43.5125 13.5317 42.478 13.5317Z" fill="#BBE2FC"/>
<path d="M56.2199 24.5594C56.2199 24.5594 56.0012 24.9433 56.2699 25.0291C56.2699 25.0291 56.5736 25.1486 56.9522 24.7942C56.9522 24.7942 59.7135 22.3614 59.7801 17.9322C59.7801 17.9322 59.8004 17.3789 59.5803 17.2276C59.5803 17.2276 58.7152 16.4558 55.6044 16.6906C55.6044 16.6906 52.8929 16.8753 51.4125 18.2008C51.4125 18.2008 51.2795 18.3181 51.2795 18.4689C51.2795 18.4689 51.2475 18.7947 52.0613 18.6536C52.0613 18.6536 54.7726 18.2674 56.3863 18.4689C56.3863 18.4689 57.2183 18.5696 57.4512 18.8551C57.4512 18.8551 57.8338 19.1739 57.634 20.2305C57.634 20.231 57.0848 22.9153 56.2199 24.5594Z" fill="#BBE2FC"/>
<path d="M55.6727 20.31C55.6727 20.31 56.0776 20.8391 55.4242 21.2955C55.4242 21.2955 48.4439 26.9267 36.7234 26.9267C36.7234 26.9267 24.6586 27.5269 14.5846 18.2955C14.5846 18.2955 14.2314 17.9828 14.4506 17.6921C14.4506 17.6921 14.6467 17.4246 15.1541 17.7155C15.1541 17.7155 24.6307 23.6711 37.0768 23.6711C37.0768 23.6711 45.7277 24.0089 54.6018 20.1812C54.6018 20.1812 55.3088 19.8117 55.6727 20.31Z" fill="#BBE2FC"/>
</g>
<defs>
<clipPath id="clip0_139_846">
<rect width="89" height="27" fill="white" transform="translate(0.548828 0.526932)"/>
</clipPath>
</defs>
</svg>
