<?xml version="1.0" encoding="UTF-8" standalone="no"?><svg width="115" height="33" viewBox="0 0 115 33" fill="none" xmlns="http://www.w3.org/2000/svg">
<path d="M99.9334 10.7837C100.679 10.7837 101.326 10.3861 101.376 9.89788L102.122 1.49215C102.122 0.645674 101.138 0 99.9334 0C98.6902 0 97.7444 0.696857 97.7444 1.49215L98.4904 9.89788C98.5397 10.3949 99.1873 10.7837 99.9334 10.7837ZM95.3565 13.4215C95.7542 12.7749 95.705 12.0288 95.3073 11.7306L88.3928 6.90565C87.6959 6.508 86.6014 7.00413 86.0049 8.04942C85.4085 9.09472 85.5079 10.2876 86.2038 10.6853L93.8644 14.2681C94.3614 14.4177 95.0081 14.0692 95.3565 13.4215ZM104.461 13.4206C104.859 14.0672 105.504 14.4048 105.953 14.208L113.614 10.6252C114.311 10.2276 114.46 9.03366 113.813 7.98935C113.216 6.94602 112.122 6.44701 111.425 6.84564L104.51 11.6705C104.113 12.019 104.062 12.7651 104.461 13.4127M99.9334 21.2701C100.679 21.2701 101.326 21.6678 101.376 22.156L102.122 30.5617C102.122 31.4081 101.138 32.0539 99.9334 32.0539C98.6902 32.0539 97.7444 31.357 97.7444 30.5617L98.4904 22.156C98.5397 21.6589 99.1873 21.2701 99.9334 21.2701ZM104.461 18.6421C104.859 17.9955 105.504 17.6579 105.953 17.8547L113.614 21.3863C114.311 21.784 114.46 22.9779 113.813 24.0222C113.216 25.0655 112.122 25.5645 111.425 25.1659L104.51 20.341C104.113 20.0428 104.062 19.2977 104.461 18.65M95.3565 18.652C95.7542 19.2987 95.705 20.0448 95.3073 20.343L88.3928 25.1679C87.6959 25.5655 86.6014 25.0695 86.0049 24.0242C85.4085 22.9789 85.5079 21.7859 86.2038 21.3883L93.8644 17.8567C94.3614 17.6579 95.0081 18.0063 95.3565 18.6441" fill="#BBE2FC"/>
<path d="M63.4173 19.5516C63.4173 19.7603 63.4173 20.0103 63.3336 20.1766C63.0836 20.968 62.2509 21.6767 61.2096 21.6767C60.3237 21.6767 59.6269 21.1767 59.6269 20.1353C59.6269 18.5113 61.4183 18.0939 63.4163 18.0939L63.4173 19.5516ZM66.5827 16.7602C66.5827 14.1027 65.4577 11.7601 61.6259 11.7601C59.6574 11.7601 58.0855 12.3015 57.2518 12.8015L57.8768 14.9255C58.6682 14.4255 59.8749 14.0102 61.0856 14.0102C63.0541 14.0102 63.3346 15.0929 63.3346 15.8015V15.9689C59.0855 15.9689 56.4201 17.4256 56.4201 20.4257C56.4201 22.2584 57.7951 23.9661 60.1604 23.9661C61.6171 23.9661 62.8179 23.3834 63.5758 22.4661H63.6594C63.6594 22.4661 64.1594 24.5075 66.8249 23.7161C66.6999 22.8834 66.6575 21.9661 66.6575 20.8834L66.5739 16.7494M0.548828 8.13702L3.75757 21.3007C4.25758 23.4661 5.21429 24.2584 7.89151 23.7171L9.59923 16.6776L10.5992 11.9284H10.6406C10.8493 13.7198 11.1406 14.9797 11.4733 16.7189L12.556 21.593C12.93 23.2594 13.931 24.3421 16.5551 23.7584L20.689 8.17932H17.3563L15.9389 14.9275L14.9389 20.218H14.8976L13.9822 15.0525L12.5255 8.17932H9.05591L7.47319 14.8862L6.34816 20.3017H6.30683C6.00567 18.4076 5.67227 16.5188 5.3068 14.6361L4.05679 8.17932L0.557689 8.13799M27.011 19.5516C27.011 19.7603 27.011 20.0103 26.9273 20.1766C26.6773 20.968 25.8446 21.6767 24.8033 21.6767C23.9174 21.6767 23.2206 21.1767 23.2206 20.1353C23.2206 18.5113 25.012 18.0939 27.01 18.0939L27.011 19.5516ZM30.1764 16.7602C30.1764 14.1027 29.0514 11.7601 25.2196 11.7601C23.2511 11.7601 21.6792 12.3015 20.8455 12.8015L21.4705 14.9255C22.2619 14.4255 23.4686 14.0102 24.6793 14.0102C26.6478 14.0102 26.9283 15.0929 26.9283 15.8015V15.9689C22.6792 15.9689 20.0138 17.4256 20.0138 20.4257C20.0138 22.2584 21.3888 23.9661 23.7541 23.9661C25.2108 23.9661 26.4116 23.3834 27.1695 22.4661H27.2532C27.2532 22.4661 27.7532 24.5075 30.4186 23.7161C30.2936 22.8834 30.2512 21.9661 30.2512 20.8834V16.7494M35.4147 20.4266V8.13799H32.2493V23.7171H35.4147V20.4266Z" fill="#BBE2FC"/>
<path d="M76.8725 8.13798V19.6343C76.8725 21.217 77.1638 22.3411 77.7879 23.0084C78.3292 23.5911 79.2446 23.9661 80.3706 23.9661C81.286 23.9661 82.2447 23.7988 82.662 23.6314L82.6207 21.1737C82.286 21.2574 81.912 21.2987 81.413 21.2987C80.3303 21.2987 79.9562 20.59 79.9562 19.1746V14.7592H82.7053V11.7601H79.9562V8.09467H76.8735M68.6666 12.0121V23.7171H71.9147V17.7189C71.9147 17.3842 71.9147 17.0939 71.9984 16.833C72.2484 15.583 73.2061 14.7917 74.5811 14.7917C74.9551 14.7917 75.2475 14.833 75.5388 14.8754V11.7926C75.2888 11.7513 75.1225 11.7089 74.8301 11.7089C73.6224 11.7089 72.2061 12.5003 71.6214 14.1667H71.5377V11.9589H68.6637M37.6748 12.0121V23.7171H40.8402V16.8439C40.8402 16.5093 40.8816 16.1775 41.0076 15.8862C41.2576 15.1775 41.9229 14.3862 42.9239 14.3862C44.2153 14.3862 44.798 15.4689 44.798 17.0437V23.7072H47.9634V16.7504C47.9634 16.459 48.0048 16.084 48.0884 15.7926C48.3384 15.0013 49.0461 14.3754 50.0048 14.3754C51.2962 14.3754 51.9212 15.458 51.9212 17.2907V23.7062H55.0866V16.7917C55.0866 13.1676 53.2539 11.7099 51.1712 11.7099C50.3642 11.7022 49.571 11.9185 48.8798 12.3349C48.3384 12.6695 47.8384 13.1676 47.3798 13.7917H47.3384C46.8384 12.5416 45.672 11.7089 44.1297 11.7089C42.1316 11.7089 41.2556 12.7089 40.7143 13.583H40.6729V12.0003H37.6738" fill="#BBE2FC"/>
</svg>
