<?xml version="1.0" encoding="UTF-8" standalone="no"?><svg width="106" height="24" viewBox="0 0 106 24" fill="none" xmlns="http://www.w3.org/2000/svg">
<path d="M37.7466 13.7308L37.1207 15.5042H37.0685C36.9642 15.1044 36.773 14.4958 36.46 13.7656L33.1044 5.33315H29.8184V18.7729H31.9917V10.4795L31.9743 8.63658C31.9569 8.27146 31.9221 7.99328 31.9047 7.78464H31.9569C32.0612 8.30624 32.1829 8.68874 32.2699 8.93215L36.3035 18.7381H37.8335L41.8324 8.84522C41.9194 8.61919 42.0063 8.16715 42.0932 7.78464H42.1454L42.0411 10.2014V18.7208H44.3535V5.29837H41.1891L37.7466 13.7308ZM46.5442 9.08863H48.8044V18.7208H46.5442V9.08863ZM47.6917 5.02019C47.3092 5.02019 46.9962 5.15928 46.7354 5.40269C46.4746 5.6461 46.3355 5.95906 46.3355 6.34156C46.3331 6.51472 46.3675 6.68642 46.4364 6.84528C46.5054 7.00415 46.6073 7.14655 46.7354 7.26305C46.9962 7.50646 47.3092 7.62816 47.6917 7.62816C48.0742 7.62816 48.4045 7.48907 48.6479 7.26305C48.7761 7.14655 48.878 7.00415 48.9469 6.84528C49.0159 6.68642 49.0503 6.51472 49.0478 6.34156C49.0478 5.97645 48.9087 5.66349 48.6479 5.40269C48.4219 5.15928 48.0916 5.02019 47.6917 5.02019ZM56.8196 9.0017C56.4023 8.91476 55.9677 8.86261 55.5504 8.86261C54.5246 8.86261 53.5857 9.08863 52.8033 9.54068C52.0209 9.99273 51.395 10.6186 50.9951 11.401C50.5778 12.2008 50.3692 13.1223 50.3692 14.1829C50.3692 15.1044 50.5778 15.9215 50.9777 16.6691C51.3776 17.3994 51.934 17.9905 52.6816 18.3904C53.3945 18.7903 54.229 18.9989 55.1679 18.9989C56.2458 18.9989 57.1673 18.7729 57.8976 18.3556L57.9149 18.3382V16.2519L57.828 16.3214C57.4977 16.5648 57.1152 16.7735 56.7327 16.8952C56.3328 17.0343 55.9677 17.1038 55.6547 17.1038C54.7506 17.1038 54.0378 16.843 53.5335 16.2693C53.0119 15.7129 52.7512 14.9479 52.7512 13.9916C52.7512 13.0006 53.0119 12.2182 53.5509 11.6444C54.0899 11.0707 54.8028 10.7751 55.6721 10.7751C56.4023 10.7751 57.1499 11.0185 57.828 11.5054L57.9149 11.5749V9.36681L57.8976 9.34943C57.602 9.22772 57.2716 9.08863 56.8196 9.0017ZM64.2784 8.93215C63.722 8.93215 63.2004 9.10602 62.7484 9.47113C62.3659 9.78409 62.1051 10.2361 61.8791 10.7751H61.8617V9.08863H59.6014V18.7208H61.8617V13.8004C61.8617 12.9658 62.0355 12.2704 62.418 11.7662C62.8005 11.2446 63.2874 10.9838 63.8785 10.9838C64.0871 10.9838 64.2958 11.0359 64.5566 11.0707C64.8 11.1402 64.9739 11.2098 65.0956 11.2967L65.1825 11.3663V9.10602L65.1303 9.08863C64.9739 8.98431 64.6609 8.93215 64.2784 8.93215ZM70.4332 8.87999C68.8511 8.87999 67.5818 9.34943 66.6951 10.2709C65.791 11.1924 65.3564 12.4616 65.3564 14.0612C65.3564 15.5564 65.8084 16.7735 66.6777 17.6602C67.5471 18.5295 68.7293 18.9815 70.2072 18.9815C71.7546 18.9815 72.989 18.5121 73.8757 17.5732C74.7798 16.6344 75.2145 15.3825 75.2145 13.8351C75.2145 12.3051 74.7972 11.0881 73.9453 10.2014C73.1281 9.31465 71.9285 8.87999 70.4332 8.87999ZM72.2414 16.2866C71.8241 16.8256 71.1635 17.0864 70.3463 17.0864C69.5291 17.0864 68.8684 16.8256 68.399 16.2519C67.9296 15.7129 67.7035 14.9305 67.7035 13.9395C67.7035 12.9137 67.9469 12.1313 68.399 11.5749C68.8684 11.0185 69.5117 10.7403 70.3289 10.7403C71.1287 10.7403 71.7546 11.0011 72.2066 11.5401C72.6587 12.0791 72.9021 12.8615 72.9021 13.8873C72.8673 14.9305 72.6761 15.7477 72.2414 16.2866ZM80.2566 13.0875C79.5437 12.792 79.0917 12.5659 78.8831 12.3747C78.7092 12.2008 78.6223 11.9574 78.6223 11.6444C78.6223 11.3836 78.7266 11.1228 78.9874 10.949C79.2482 10.7751 79.5437 10.6882 79.9784 10.6882C80.3609 10.6882 80.7608 10.7577 81.1433 10.8621C81.5258 10.9664 81.8735 11.1229 82.1517 11.3315L82.2387 11.401V9.27988L82.1865 9.26249C81.9257 9.15818 81.578 9.05386 81.1607 8.96692C80.7434 8.89738 80.3609 8.86261 80.048 8.86261C78.97 8.86261 78.0833 9.1234 77.3878 9.69716C76.6924 10.2361 76.362 10.9664 76.362 11.8183C76.362 12.2704 76.4316 12.6702 76.588 13.0006C76.7445 13.3309 76.9705 13.6439 77.2835 13.9047C77.5965 14.1481 78.0485 14.4263 78.6744 14.6871C79.196 14.9131 79.5959 15.087 79.8393 15.2261C80.0827 15.3652 80.2392 15.5216 80.3609 15.6433C80.4478 15.7824 80.5 15.9563 80.5 16.1823C80.5 16.8256 80.0132 17.1386 79.0222 17.1386C78.6396 17.1386 78.2398 17.069 77.7703 16.9126C77.3009 16.7561 76.8662 16.5301 76.5011 16.2693L76.4142 16.1997V18.4078L76.4663 18.4252C76.7967 18.5817 77.1966 18.686 77.6834 18.8077C78.1702 18.8946 78.6049 18.9642 78.9874 18.9642C80.1523 18.9642 81.1085 18.7034 81.7866 18.1296C82.4821 17.5732 82.8472 16.8604 82.8472 15.9389C82.8472 15.2956 82.6733 14.7219 82.2908 14.2872C81.7866 13.8699 81.1607 13.4353 80.2566 13.0875ZM88.8107 8.87999C87.2286 8.87999 85.9594 9.34943 85.0727 10.2709C84.1859 11.1924 83.7339 12.4616 83.7339 14.0612C83.7339 15.5564 84.1859 16.7735 85.0553 17.6602C85.9246 18.5295 87.1069 18.9815 88.5847 18.9815C90.1321 18.9815 91.3666 18.5121 92.2533 17.5732C93.1574 16.6344 93.592 15.3825 93.592 13.8351C93.592 12.3051 93.1748 11.0881 92.3228 10.2014C91.5057 9.31465 90.306 8.87999 88.8107 8.87999ZM90.6016 16.2866C90.1843 16.8256 89.5236 17.0864 88.7064 17.0864C87.8719 17.0864 87.2286 16.8256 86.7591 16.2519C86.2897 15.7129 86.0637 14.9305 86.0637 13.9395C86.0637 12.9137 86.3071 12.1313 86.7591 11.5749C87.2286 11.0185 87.8719 10.7403 88.689 10.7403C89.4714 10.7403 90.1147 11.0011 90.5668 11.5401C91.0188 12.0791 91.2622 12.8615 91.2622 13.8873C91.2622 14.9305 91.0362 15.7477 90.6016 16.2866ZM105.676 10.949V9.08863H103.398V6.23724L103.328 6.25463L101.173 6.89793L101.12 6.91532V9.08863H97.7126V7.87157C97.7126 7.31521 97.8517 6.88054 98.0951 6.60236C98.3385 6.32418 98.7037 6.18508 99.1557 6.18508C99.4687 6.18508 99.799 6.25463 100.164 6.41111L100.251 6.46327V4.49859L100.199 4.48121C99.886 4.37689 99.4687 4.30734 98.9297 4.30734C98.2516 4.30734 97.6605 4.46382 97.1215 4.72462C96.5825 5.02019 96.1826 5.42008 95.887 5.95906C95.5915 6.48065 95.435 7.0718 95.435 7.74987V9.08863H93.8528V10.9316H95.435V18.7208H97.7126V10.949H101.12V15.9041C101.12 17.9384 102.077 18.9642 103.989 18.9642C104.302 18.9642 104.632 18.912 104.945 18.8598C105.276 18.7903 105.519 18.7034 105.658 18.6338L105.676 18.6164V16.7561L105.589 16.8256C105.45 16.9126 105.328 16.9821 105.119 17.0343C104.945 17.0864 104.789 17.1038 104.667 17.1038C104.215 17.1038 103.902 16.9995 103.676 16.7387C103.468 16.4953 103.363 16.0954 103.363 15.5042V10.949H105.676Z" fill="#BBE2FC"/>
<path d="M0.677734 0.812653H11.3357V11.4706H0.677734V0.812653Z" fill="#BBE2FC"/>
<path d="M12.4492 0.812653H23.1071V11.4706H12.4492V0.812653Z" fill="#BBE2FC"/>
<path d="M0.677734 12.5833H11.3357V23.2412H0.677734V12.5833Z" fill="#BBE2FC"/>
<path d="M12.4492 12.5833H23.1071V23.2412H12.4492V12.5833Z" fill="#BBE2FC"/>
</svg>
