<?xml version="1.0" encoding="UTF-8" standalone="no"?><svg width="79" height="24" viewBox="0 0 79 24" fill="none" xmlns="http://www.w3.org/2000/svg">
<path d="M71.9676 15.4882L78.4635 8.18788H70.8585L68.2138 11.2104L65.4716 8.18788H51.0051V6.23788H57.8423V0.375687H39.4148V9.57725H39.3538C38.1838 8.23662 36.7335 7.7735 35.0395 7.7735C31.5782 7.7735 28.9701 10.1379 28.056 13.2457C25.8623 6.00631 16.1854 6.22569 13.1995 11.5394V8.59006H6.5207V5.39694H13.8332V0.387875H0.548828V22.8616H6.5207V13.4163H12.4804C12.2976 14.111 12.2001 14.8544 12.2001 15.6344C12.2001 24.5435 24.7045 26.7738 28.0682 18.5229H22.9495C21.1579 21.0701 17.3676 19.6076 17.3676 16.7435H27.7879C28.2388 20.4607 31.1273 23.6782 35.1126 23.6782C36.831 23.6782 38.4032 22.8373 39.366 21.4113H39.427V22.8616H65.2888L67.9823 19.8148L70.7001 22.8616H78.5488L71.9676 15.4882ZM17.526 13.4651C18.2695 10.2597 22.6082 10.3451 23.1932 13.4651H17.526ZM36.2216 19.4247C32.0048 19.4247 32.0779 11.771 36.2216 11.771C40.1948 11.771 40.4263 19.4247 36.2216 19.4247ZM56.6723 21.7526H45.1673V1.46037H56.7454V5.141H49.9082V9.27256H56.6723V12.6973H49.8351V18.1451H56.6723V21.7526ZM51.0782 16.9019V13.9282H57.9154V8.56569L64.0945 15.5126L57.9154 22.4594V16.9019H51.0782ZM67.9701 18.1572L64.7891 21.7526H60.1457L65.7032 15.5126L60.1457 9.27256H64.9841L68.226 12.8435L71.346 9.27256H76.0382L70.5051 15.4882L76.1113 21.7526H71.1754L67.9701 18.1572Z" fill="#BBE2FC"/>
</svg>
