<?xml version="1.0" encoding="UTF-8" standalone="no"?><svg width="83" height="24" viewBox="0 0 83 24" fill="none" xmlns="http://www.w3.org/2000/svg">
<path fill-rule="evenodd" clip-rule="evenodd" d="M44.179 22.9622H55.431C57.1123 22.9622 58.4921 22.2678 59.6128 20.8786C60.6905 19.5335 61.2511 17.928 61.2511 16.106C61.2511 12.4174 56.5522 9.81358 54.7407 9.81358H48.576C48.1018 9.81358 47.713 9.59652 47.4119 9.24976C47.1099 8.85888 46.9377 8.42521 46.9377 7.90419C46.9377 7.2967 47.1099 6.77612 47.4119 6.342C47.7569 5.90833 48.1877 5.64804 48.7053 5.64804H60.2593V1.00428H48.4893C46.3767 1.00428 44.7379 1.65545 43.5738 2.91367C42.5398 4.08542 42.0218 5.6476 42.0218 7.51376C42.0218 9.33623 42.5398 10.9421 43.5738 12.2431C44.7379 13.6751 46.1181 14.4137 47.7994 14.4137H54.9134C55.3438 14.4137 55.6892 14.5438 55.9473 14.8901C56.2493 15.2373 56.3786 15.6714 56.3786 16.1492C56.3786 16.7135 56.163 17.2341 55.818 17.6682C55.4301 18.0586 54.9988 18.2757 54.4391 18.2757H43.0574L42.8852 17.9717L38.6171 4.17233L38.4014 3.73822C37.3666 1.61177 35.6423 0.570611 33.2712 0.570611C31.9777 0.570611 30.8136 0.874133 29.7788 1.5253C28.701 2.17603 28.0112 3.13072 27.6233 4.34615L21.889 22.9186L27.1056 22.9627L32.3652 6.42936C32.4945 5.90834 32.7965 5.64804 33.1844 5.64804C33.4 5.64804 33.5723 5.73451 33.7016 5.8651C33.8309 6.03848 33.9172 6.2123 33.9602 6.42936L39.2627 22.9627L44.179 22.9622ZM5.37754 7.77405V22.9186H0.548828V6.12495C0.548828 3.95527 1.06646 2.43632 2.18718 1.5253C3.04931 0.874133 4.34272 0.526932 6.15333 0.526932C7.61899 0.526932 8.86945 0.961046 9.99017 1.78559C11.1109 2.61014 11.8437 3.73821 12.2321 5.12702L15.379 16.2794L15.8967 17.7983C15.9396 18.1019 16.1123 18.3189 16.2845 18.4918C16.5002 18.6661 16.7154 18.753 16.9744 18.6661C17.4057 18.6229 17.6214 18.3621 17.6214 17.9717V1.04795H22.5794V17.7547C22.5794 19.6208 22.1485 21.0101 21.243 22.008C20.3809 23.0059 19.0875 23.5269 17.3628 23.5269C15.8537 23.5269 14.6032 23.223 13.6118 22.7024C12.4047 22.0949 11.6285 21.1402 11.2836 19.8811L7.66238 7.16655L7.40378 6.342C7.31744 6.03848 7.14519 5.82142 6.92955 5.60437C6.71391 5.43055 6.45531 5.38731 6.19672 5.43055C5.93812 5.47422 5.76587 5.60437 5.59318 5.86466C5.45144 6.10008 5.37683 6.37025 5.37754 6.64553V7.77405ZM82.5488 22.9622L76.9443 4.17233L76.7287 3.73822C75.6939 1.61177 73.9696 0.570611 71.5984 0.570611C70.305 0.570611 69.1409 0.874133 68.1065 1.5253C67.0279 2.17603 66.3389 3.13072 65.9501 4.34615L60.2163 22.9186L65.4329 22.9627L70.6925 6.42936C70.8218 5.90834 71.1238 5.64804 71.5117 5.64804C71.7273 5.64804 71.8995 5.73451 72.0288 5.8651C72.159 6.03848 72.2445 6.2123 72.2883 6.42936L77.5908 22.9627L82.5488 22.9622Z" fill="#BBE2FC"/>
</svg>
