<?xml version="1.0" encoding="UTF-8" standalone="no"?><svg width="86" height="29" viewBox="0 0 86 29" fill="none" xmlns="http://www.w3.org/2000/svg">
<path fill-rule="evenodd" clip-rule="evenodd" d="M29.6593 7.76283C25.5966 7.76283 22.6836 10.9586 22.6836 14.6881C22.6836 18.4697 25.5084 21.7255 29.707 21.7255C33.5092 21.7255 36.623 18.8032 36.623 14.7602C36.623 10.1313 32.9999 7.75616 29.6606 7.75616L29.6593 7.76283ZM44.8294 7.76283C40.7713 7.76283 37.8604 10.9586 37.8604 14.6881C37.8604 18.4697 40.6851 21.7255 44.8844 21.7255C48.6773 21.7255 51.7938 18.8032 51.7938 14.7602C51.7938 10.1313 48.1733 7.75616 44.8314 7.75616L44.8354 7.76283H44.8294ZM68.3888 21.3185H71.4457V0.736143H68.3888V21.3185ZM59.9802 10.5083C61.8104 10.5083 63.6869 12.0815 63.6869 14.7635C63.6869 17.4989 61.813 18.9934 59.9391 18.9934C57.9499 18.9934 56.1018 17.3788 56.1018 14.7902C56.1018 12.1081 58.0248 10.5069 59.9809 10.5069L59.9802 10.5083ZM29.7004 10.5083C31.699 10.5083 33.5927 12.1348 33.5927 14.7502C33.5927 17.3254 31.7069 18.9934 29.6911 18.9934C27.4831 18.9934 25.7325 17.214 25.7325 14.7368C25.7325 12.3216 27.4565 10.5183 29.7044 10.5183V10.5076L29.7004 10.5083ZM44.8705 10.5083C46.8684 10.5083 48.7628 12.1348 48.7628 14.7502C48.7628 17.3254 46.8763 18.9934 44.8612 18.9934C42.6465 18.9934 40.896 17.214 40.896 14.7368C40.896 12.3216 42.62 10.5183 44.8612 10.5183L44.8678 10.5076L44.8705 10.5083ZM79.2939 7.75949C75.7776 7.75949 72.8222 10.575 72.8222 14.7368C72.8222 19.1368 76.1151 21.7421 79.6334 21.7421C82.5576 21.7421 84.3612 20.1276 85.4354 18.6798L83.0351 17.0739C82.4118 18.048 81.3641 18.9954 79.6268 18.9954C77.6773 18.9954 76.7802 17.9212 76.2252 16.8804L85.5488 12.9835L85.0661 11.8453C84.167 9.61691 82.069 7.75349 79.2953 7.75349L79.2886 7.76016L79.2939 7.75949ZM21.5498 9.9078H11.6433V12.8687H18.668C18.3232 17.0185 14.893 18.7866 11.6572 18.7866C7.51754 18.7866 3.90372 15.5081 3.90372 10.9139C3.90372 6.43915 7.3385 2.9932 11.6618 2.9932C14.9905 2.9932 16.9533 5.13283 16.9533 5.13283L19.0088 2.98919C19.0088 2.98919 16.3691 0.0269359 11.5484 0.0269359C5.4202 0.0215985 0.673828 5.2309 0.673828 10.8552C0.673828 16.366 5.1364 21.7435 11.7063 21.7435C17.4884 21.7435 21.7189 17.7604 21.7189 11.8693C21.7189 10.6283 21.5378 9.9078 21.5378 9.9078H21.5498ZM79.4173 10.4415C80.6864 10.4415 81.5988 11.1207 81.9861 11.9347L75.773 14.55C75.5044 12.5311 77.4094 10.4502 79.4186 10.4502L79.4173 10.4415ZM59.7123 7.77284C55.9825 7.77284 53.0503 11.0673 53.0503 14.7502C53.0503 18.9534 56.4453 21.7421 59.648 21.7421C61.624 21.7421 62.6717 20.9549 63.4541 20.0475V21.4219C63.4541 23.8357 61.9954 25.2768 59.8072 25.2768C57.6853 25.2768 56.6244 23.689 56.253 22.7916L53.5881 23.9118C54.5343 25.9267 56.4394 28.0269 59.829 28.0269C63.537 28.0269 66.3638 25.6758 66.3638 20.7481V8.19849H63.4548V9.38139C62.5596 8.42066 61.3369 7.78018 59.7123 7.78018V7.7735V7.77284Z" fill="#BBE2FC"/>
</svg>
