<?xml version="1.0" encoding="UTF-8" standalone="no"?><svg width="90" height="28" viewBox="0 0 90 28" fill="none" xmlns="http://www.w3.org/2000/svg">
<g clip-path="url(#clip0_572_794)">
<path d="M20.2538 7.09649V15.4516C20.2538 15.587 20.2004 15.7169 20.1055 15.8127C20.0105 15.9084 19.8817 15.9622 19.7474 15.9622H17.1323C16.998 15.9622 16.8693 15.9083 16.7743 15.8126C16.6794 15.7168 16.626 15.587 16.626 15.4516V1.86162C16.626 1.72619 16.6793 1.5963 16.7743 1.50054C16.8692 1.40477 16.998 1.35097 17.1323 1.35097H19.5523C19.6866 1.35097 19.8154 1.40477 19.9103 1.50054C20.0053 1.5963 20.0586 1.72619 20.0586 1.86162V3.77545C20.0586 3.77545 20.9237 1.04543 23.4911 1.04543C23.4911 1.04543 26.0305 0.735844 27.063 3.57844C27.063 3.57844 27.9281 1.04543 30.5513 1.04543C30.5513 1.04543 34.4523 0.811496 34.4523 4.88254L34.482 7.12464V15.4797C34.482 15.6152 34.4287 15.745 34.3337 15.8408C34.2387 15.9366 34.11 15.9904 33.9757 15.9904H31.3603C31.2261 15.9903 31.0973 15.9365 31.0024 15.8407C30.9074 15.745 30.8541 15.6151 30.854 15.4797L30.8301 6.36474C30.9045 4.30073 29.2488 4.45091 29.2488 4.45091C27.1653 4.48851 27.3658 7.12464 27.3658 7.12464V15.4797C27.3658 15.6152 27.3124 15.745 27.2175 15.8408C27.1225 15.9366 26.9937 15.9904 26.8594 15.9904H24.2443C24.11 15.9903 23.9813 15.9365 23.8863 15.8407C23.7914 15.745 23.738 15.6151 23.738 15.4797V6.57098C23.738 6.57098 23.8909 4.432 22.0304 4.432C22.0306 4.432 20.1888 4.18816 20.2538 7.09649ZM87.6645 7.0715V15.4264C87.6645 15.5618 87.6111 15.6916 87.5162 15.7874C87.4212 15.8831 87.2925 15.9369 87.1582 15.937L84.4384 15.9901C84.3041 15.9901 84.1754 15.9363 84.0804 15.8405C83.9855 15.7448 83.9321 15.6149 83.932 15.4795V6.57098C83.932 6.57098 84.085 4.432 82.2246 4.432C82.2246 4.432 80.4478 4.34374 80.4478 7.69743V15.4513C80.4478 15.5868 80.3944 15.7166 80.2995 15.8124C80.2045 15.9081 80.0758 15.9619 79.9415 15.962H77.3261C77.1919 15.9619 77.0631 15.9081 76.9682 15.8124C76.8732 15.7166 76.8199 15.5868 76.8198 15.4513V1.86162C76.8199 1.72621 76.8732 1.59636 76.9682 1.5006C77.0631 1.40485 77.1919 1.35103 77.3261 1.35097H79.7461C79.8804 1.35097 80.0092 1.40477 80.1042 1.50054C80.1991 1.5963 80.2525 1.72619 80.2525 1.86162V3.77545C80.2525 3.77545 81.1176 1.04543 83.6849 1.04543C83.6849 1.04543 86.4351 0.624617 87.3614 3.52552C87.3616 3.5253 87.6645 4.12376 87.6645 7.0715ZM68.7822 0.989144C65.438 0.989144 62.7266 3.83174 62.7266 8.61629C62.7266 12.8287 64.8196 16.2434 68.7822 16.2434C72.5216 16.2434 74.8378 12.8287 74.8378 8.61629C74.8378 3.91617 72.1267 0.989144 68.7822 0.989144ZM70.893 8.78516C70.893 10.5864 70.6698 11.5433 70.6698 11.5433C70.3521 13.4475 68.9816 13.4502 68.7796 13.44C68.5614 13.4488 67.1793 13.429 66.8933 11.5433C66.8933 11.5433 66.6701 10.5864 66.6701 8.78516V8.48503C66.6701 6.68378 66.8933 5.72687 66.8933 5.72687C67.1793 3.84119 68.5617 3.82138 68.7796 3.82993C68.9816 3.8198 70.3521 3.82228 70.6698 5.72687C70.6698 5.72687 70.893 6.68378 70.893 8.48503V8.78516ZM61.2088 3.75653V1.80668C61.2087 1.67127 61.1554 1.54142 61.0604 1.44566C60.9655 1.34991 60.8367 1.29609 60.7024 1.29603H52.0583C51.924 1.29603 51.7952 1.34983 51.7003 1.4456C51.6053 1.54136 51.552 1.67125 51.552 1.80668V3.74145C51.552 3.87686 51.6054 4.00672 51.7003 4.10247C51.7953 4.19822 51.924 4.25204 52.0583 4.2521H56.5672L51.2303 12.0605C51.2303 12.0605 51.02 12.3771 51.0269 12.7267V15.1019C51.0269 15.1019 50.9921 15.9163 51.9078 15.4437C51.9078 15.4437 53.5344 14.4526 56.2618 14.4526C56.2618 14.4526 58.9553 14.4188 60.7511 15.529C60.7511 15.529 61.4965 15.8708 61.4965 15.1192V13.0519C61.4965 13.0519 61.5642 12.5047 60.8527 12.1632C60.8527 12.1632 58.7859 11.0185 56.0754 11.2063L61.2088 3.75653ZM14.6076 13.5319L13.7889 12.2751C13.5284 11.8059 13.5472 11.2803 13.5472 11.2803V5.4828C13.6588 0.473087 8.15194 0.904711 8.15194 0.904711C3.25656 0.904711 2.53346 4.74699 2.53346 4.74699C2.32941 5.5195 2.92281 5.53819 2.92281 5.53819L5.31491 5.78294C5.31491 5.78294 5.72278 5.87705 5.87124 5.38734C5.87124 5.38734 6.18624 3.71105 7.94789 3.71105C9.86469 3.71105 9.84483 5.37022 9.84483 5.37022V6.75921C6.01836 6.88822 4.2451 7.95952 4.2451 7.95952C1.88247 9.31045 2.03116 11.9936 2.03116 11.9936C2.03116 16.3653 6.16124 16.1775 6.16124 16.1775C8.80293 16.1775 10.3657 14.2263 10.3657 14.2263C10.8307 15.0521 11.6866 15.8397 11.6866 15.8397C12.1148 16.3081 12.5611 15.9149 12.5611 15.9149L14.496 14.2452C14.9237 13.9259 14.6076 13.5319 14.6076 13.5319ZM7.45049 13.4779C6.2079 13.4779 5.746 12.2325 5.95228 11.0086C6.15878 9.78463 7.23126 8.82276 9.84505 8.85091V9.59505C9.9377 12.8458 8.4848 13.4779 7.45049 13.4779ZM49.3597 13.5319L48.5412 12.2751C48.2807 11.8059 48.2992 11.2803 48.2992 11.2803V5.4828C48.4109 0.473087 42.904 0.904711 42.904 0.904711C38.0086 0.904711 37.2855 4.74699 37.2855 4.74699C37.0815 5.5195 37.6749 5.53819 37.6749 5.53819L40.067 5.78294C40.067 5.78294 40.4749 5.87705 40.6233 5.38734C40.6233 5.38734 40.9383 3.71105 42.7 3.71105C44.6168 3.71105 44.5969 5.37022 44.5969 5.37022V6.75921C40.7707 6.88822 38.9972 7.95952 38.9972 7.95952C36.6346 9.31045 36.7832 11.9936 36.7832 11.9936C36.7832 16.3653 40.9133 16.1775 40.9133 16.1775C43.555 16.1775 45.1177 14.2263 45.1177 14.2263C45.583 15.0521 46.4385 15.8397 46.4385 15.8397C46.8667 16.3081 47.3132 15.9149 47.3132 15.9149L49.2478 14.2452C49.6758 13.9259 49.3597 13.5319 49.3597 13.5319ZM42.2026 13.4779C40.96 13.4779 40.4981 12.2325 40.7044 11.0086C40.9109 9.78463 41.9833 8.82276 44.5969 8.85091V9.59505C44.6898 12.8458 43.2371 13.4779 42.2026 13.4779Z" fill="#868FAC"/>
<path d="M55.9445 24.5056C55.9445 24.5056 55.7258 24.8895 55.9946 24.9753C55.9946 24.9753 56.2982 25.0948 56.6768 24.7405C56.6768 24.7405 59.4382 22.3076 59.5047 17.8784C59.5047 17.8784 59.525 17.3252 59.3049 17.1739C59.3049 17.1739 58.4398 16.402 55.3291 16.6369C55.3291 16.6369 52.6175 16.8215 51.1371 18.147C51.1371 18.147 51.0041 18.2643 51.0041 18.4152C51.0041 18.4152 50.9722 18.741 51.7859 18.5998C51.7859 18.5998 54.4972 18.2136 56.1109 18.4152C56.1109 18.4152 56.9429 18.5158 57.1758 18.8013C57.1758 18.8013 57.5584 19.1201 57.3586 20.1768C57.3586 20.1772 56.8094 22.8615 55.9445 24.5056Z" fill="#868FAC"/>
<path d="M55.3973 20.2562C55.3973 20.2562 55.8023 20.7854 55.1488 21.2418C55.1488 21.2418 48.1685 26.8729 36.448 26.8729C36.448 26.8729 24.3833 27.4732 14.3092 18.2418C14.3092 18.2418 13.956 17.929 14.1753 17.6384C14.1753 17.6384 14.3713 17.3709 14.8787 17.6618C14.8787 17.6618 24.3554 23.6174 36.8014 23.6174C36.8014 23.6174 45.4523 23.9551 54.3264 20.1275C54.3264 20.1275 55.0334 19.758 55.3973 20.2562Z" fill="#868FAC"/>
</g>
<defs>
<clipPath id="clip0_572_794">
<rect width="89" height="27" fill="white" transform="translate(0.273438 0.473145)"/>
</clipPath>
</defs>
</svg>
