<?xml version="1.0" encoding="UTF-8" standalone="no"?><svg width="24" height="24" viewBox="0 0 24 24" fill="none" xmlns="http://www.w3.org/2000/svg">
<path fill-rule="evenodd" clip-rule="evenodd" d="M12 3C7.02944 3 3 7.02944 3 12C3 16.9706 7.02944 21 12 21C16.9706 21 21 16.9706 21 12C21 7.02944 16.9706 3 12 3ZM1 12C1 5.92487 5.92487 1 12 1C18.0751 1 23 5.92487 23 12C23 18.0751 18.0751 23 12 23C5.92487 23 1 18.0751 1 12Z" fill="#00A2B9"/>
<path fill-rule="evenodd" clip-rule="evenodd" d="M17.1549 7.7443C17.5723 8.106 17.6174 8.73756 17.2557 9.15492L10.7557 16.6549C10.5739 16.8647 10.3131 16.9895 10.0356 16.9993C9.75823 17.0092 9.48918 16.9034 9.29289 16.7071L6.79289 14.2071C6.40237 13.8166 6.40237 13.1834 6.79289 12.7929C7.18342 12.4024 7.81658 12.4024 8.20711 12.7929L9.94769 14.5335L15.7443 7.84505C16.106 7.4277 16.7376 7.38259 17.1549 7.7443Z" fill="#00A2B9"/>
</svg>
