<?xml version="1.0" encoding="UTF-8" standalone="no"?><svg width="79" height="24" viewBox="0 0 79 24" fill="none" xmlns="http://www.w3.org/2000/svg">
<path d="M72.1434 15.4344L78.6393 8.13409H71.0343L68.3896 11.1566L65.6474 8.13409H51.1809V6.18409H58.018V0.321899H39.5905V9.52346H39.5296C38.3596 8.18284 36.9093 7.71971 35.2152 7.71971C31.754 7.71971 29.1459 10.0841 28.2318 13.1919C26.038 5.95253 16.3612 6.1719 13.3752 11.4857V8.53627H6.69648V5.34315H14.009V0.334088H0.724609V22.8078H6.69648V13.3625H12.6562C12.4734 14.0572 12.3759 14.8007 12.3759 15.5807C12.3759 24.4897 24.8802 26.72 28.244 18.4691H23.1252C21.3337 21.0163 17.5434 19.5538 17.5434 16.6897H27.9637C28.4146 20.4069 31.303 23.6244 35.2884 23.6244C37.0068 23.6244 38.579 22.7835 39.5418 21.3575H39.6027V22.8078H65.4646L68.1581 19.761L70.8759 22.8078H78.7246L72.1434 15.4344ZM17.7018 13.4113C18.4452 10.206 22.784 10.2913 23.369 13.4113H17.7018ZM36.3974 19.371C32.1805 19.371 32.2537 11.7172 36.3974 11.7172C40.3705 11.7172 40.6021 19.371 36.3974 19.371ZM56.848 21.6988H45.343V1.40659H56.9212V5.08721H50.084V9.21877H56.848V12.6435H50.0109V18.0913H56.848V21.6988ZM51.254 16.8482V13.8744H58.0912V8.5119L64.2702 15.4588L58.0912 22.4057V16.8482H51.254ZM68.1459 18.1035L64.9649 21.6988H60.3215L65.879 15.4588L60.3215 9.21877H65.1599L68.4018 12.7897L71.5218 9.21877H76.214L70.6809 15.4344L76.2871 21.6988H71.3512L68.1459 18.1035Z" fill="#868FAC"/>
</svg>
