<?xml version="1.0" encoding="UTF-8" standalone="no"?><svg width="86" height="29" viewBox="0 0 86 29" fill="none" xmlns="http://www.w3.org/2000/svg">
<path fill-rule="evenodd" clip-rule="evenodd" d="M29.3839 8.70904C25.3212 8.70904 22.4082 11.9048 22.4082 15.6343C22.4082 19.4159 25.233 22.6717 29.4317 22.6717C33.2338 22.6717 36.3476 19.7495 36.3476 15.7064C36.3476 11.0775 32.7245 8.70237 29.3852 8.70237L29.3839 8.70904ZM44.554 8.70904C40.4959 8.70904 37.585 11.9048 37.585 15.6343C37.585 19.4159 40.4097 22.6717 44.609 22.6717C48.4019 22.6717 51.5184 19.7495 51.5184 15.7064C51.5184 11.0775 47.8979 8.70237 44.556 8.70237L44.56 8.70904H44.554ZM68.1134 22.2647H71.1703V1.68236H68.1134V22.2647ZM59.7048 11.4545C61.535 11.4545 63.4115 13.0277 63.4115 15.7097C63.4115 18.4451 61.5376 19.9396 59.6637 19.9396C57.6745 19.9396 55.8265 18.325 55.8265 15.7364C55.8265 13.0544 57.7494 11.4531 59.7055 11.4531L59.7048 11.4545ZM29.425 11.4545C31.4236 11.4545 33.3173 13.081 33.3173 15.6964C33.3173 18.2717 31.4315 19.9396 29.4157 19.9396C27.2077 19.9396 25.4571 18.1602 25.4571 15.683C25.4571 13.2678 27.1811 11.4645 29.429 11.4645V11.4538L29.425 11.4545ZM44.5951 11.4545C46.593 11.4545 48.4874 13.081 48.4874 15.6964C48.4874 18.2717 46.6009 19.9396 44.5858 19.9396C42.3711 19.9396 40.6206 18.1602 40.6206 15.683C40.6206 13.2678 42.3446 11.4645 44.5858 11.4645L44.5925 11.4538L44.5951 11.4545ZM79.0185 8.70571C75.5022 8.70571 72.5468 11.5212 72.5468 15.683C72.5468 20.083 75.8397 22.6884 79.358 22.6884C82.2823 22.6884 84.0859 21.0738 85.16 19.626L82.7597 18.0201C82.1364 18.9942 81.0887 19.9416 79.3514 19.9416C77.4019 19.9416 76.5048 18.8674 75.9498 17.8267L85.2734 13.9297L84.7907 12.7915C83.8916 10.5631 81.7936 8.6997 79.0199 8.6997L79.0132 8.70637L79.0185 8.70571ZM21.2744 10.854H11.3679V13.8149H18.3926C18.0478 17.9648 14.6177 19.7328 11.3818 19.7328C7.24215 19.7328 3.62833 16.4543 3.62833 11.8601C3.62833 7.38537 7.06311 3.93941 11.3864 3.93941C14.7151 3.93941 16.6779 6.07904 16.6779 6.07904L18.7334 3.93541C18.7334 3.93541 16.0937 0.973149 11.273 0.973149C5.14481 0.967811 0.398438 6.17711 0.398438 11.8014C0.398438 17.3123 4.86101 22.6897 11.4309 22.6897C17.213 22.6897 21.4435 18.7067 21.4435 12.8155C21.4435 11.5746 21.2624 10.854 21.2624 10.854H21.2744ZM79.1419 11.3877C80.411 11.3877 81.3234 12.0669 81.7107 12.8809L75.4976 15.4962C75.229 13.4773 77.1341 11.3964 79.1432 11.3964L79.1419 11.3877ZM59.437 8.71905C55.7071 8.71905 52.7749 12.0136 52.7749 15.6964C52.7749 19.8996 56.1699 22.6884 59.3726 22.6884C61.3486 22.6884 62.3963 21.9011 63.1788 20.9937V22.3681C63.1788 24.782 61.72 26.2231 59.5318 26.2231C57.4099 26.2231 56.349 24.6352 55.9776 23.7378L53.3127 24.858C54.2589 26.8729 56.164 28.9731 59.5537 28.9731C63.2616 28.9731 66.0884 26.622 66.0884 21.6943V9.14471H63.1794V10.3276C62.2842 9.36688 61.0615 8.72639 59.437 8.72639V8.71972V8.71905Z" fill="#868FAC"/>
</svg>
