<?xml version="1.0" encoding="UTF-8" standalone="no"?><svg width="24" height="25" viewBox="0 0 24 25" fill="none" xmlns="http://www.w3.org/2000/svg">
<path fill-rule="evenodd" clip-rule="evenodd" d="M1 9.03125C1 8.47897 1.44772 8.03125 2 8.03125H6C6.55228 8.03125 7 8.47897 7 9.03125V21.0313C7 21.5835 6.55228 22.0313 6 22.0313H2C1.44772 22.0313 1 21.5835 1 21.0313V9.03125ZM3 10.0313V20.0313H5V10.0313H3Z" fill="#D84104"/>
<path fill-rule="evenodd" clip-rule="evenodd" d="M16 9.03125C14.6739 9.03125 13.4021 9.55803 12.4645 10.4957C11.5268 11.4334 11 12.7052 11 14.0312V20.0312H13V14.0312C13 13.2356 13.3161 12.4725 13.8787 11.9099C14.4413 11.3473 15.2043 11.0312 16 11.0312C16.7957 11.0312 17.5587 11.3473 18.1213 11.9099C18.6839 12.4725 19 13.2356 19 14.0312V20.0312H21V14.0312C21 12.7052 20.4732 11.4334 19.5355 10.4957C18.5979 9.55803 17.3261 9.03125 16 9.03125ZM16 7.03125C14.1435 7.03125 12.363 7.76875 11.0503 9.0815C9.7375 10.3943 9 12.1747 9 14.0312V21.0312C9 21.5835 9.44772 22.0312 10 22.0312H14C14.5523 22.0312 15 21.5835 15 21.0312V14.0312C15 13.766 15.1054 13.5117 15.2929 13.3241C15.4804 13.1366 15.7348 13.0312 16 13.0312C16.2652 13.0312 16.5196 13.1366 16.7071 13.3241C16.8946 13.5117 17 13.766 17 14.0312V21.0312C17 21.5835 17.4477 22.0312 18 22.0312H22C22.5523 22.0312 23 21.5835 23 21.0312V14.0312C23 12.1747 22.2625 10.3943 20.9497 9.0815C19.637 7.76875 17.8565 7.03125 16 7.03125Z" fill="#D84104"/>
<path fill-rule="evenodd" clip-rule="evenodd" d="M4 3.03125C3.44772 3.03125 3 3.47897 3 4.03125C3 4.58353 3.44772 5.03125 4 5.03125C4.55228 5.03125 5 4.58353 5 4.03125C5 3.47897 4.55228 3.03125 4 3.03125ZM1 4.03125C1 2.3744 2.34315 1.03125 4 1.03125C5.65685 1.03125 7 2.3744 7 4.03125C7 5.6881 5.65685 7.03125 4 7.03125C2.34315 7.03125 1 5.6881 1 4.03125Z" fill="#D84104"/>
</svg>
