<?xml version="1.0" encoding="UTF-8" standalone="no"?><svg width="106" height="24" viewBox="0 0 106 24" fill="none" xmlns="http://www.w3.org/2000/svg">
<path d="M37.4712 13.6769L36.8453 15.4503H36.7931C36.6888 15.0504 36.4976 14.4419 36.1846 13.7117L32.829 5.27922H29.543V18.719H31.7163V10.4256L31.6989 8.58266C31.6815 8.21754 31.6467 7.93936 31.6293 7.73072H31.6815C31.7858 8.25231 31.9075 8.63482 31.9945 8.87823L36.0281 18.6842H37.5581L41.557 8.79129C41.644 8.56527 41.7309 8.11322 41.8178 7.73072H41.87L41.7657 10.1474V18.6668H44.0781V5.24445H40.9137L37.4712 13.6769ZM46.2688 9.0347H48.529V18.6668H46.2688V9.0347ZM47.4163 4.96626C47.0338 4.96626 46.7208 5.10536 46.46 5.34877C46.1992 5.59218 46.0601 5.90514 46.0601 6.28764C46.0577 6.4608 46.0921 6.6325 46.161 6.79136C46.23 6.95022 46.3319 7.09262 46.46 7.20912C46.7208 7.45253 47.0338 7.57424 47.4163 7.57424C47.7988 7.57424 48.1291 7.43515 48.3725 7.20912C48.5007 7.09262 48.6026 6.95022 48.6715 6.79136C48.7405 6.6325 48.7749 6.4608 48.7724 6.28764C48.7724 5.92252 48.6333 5.60956 48.3725 5.34877C48.1465 5.10536 47.8162 4.96626 47.4163 4.96626ZM56.5442 8.94777C56.1269 8.86084 55.6923 8.80868 55.275 8.80868C54.2492 8.80868 53.3103 9.03471 52.5279 9.48675C51.7455 9.9388 51.1196 10.5647 50.7197 11.3471C50.3024 12.1469 50.0938 13.0684 50.0938 14.129C50.0938 15.0504 50.3024 15.8676 50.7023 16.6152C51.1022 17.3455 51.6586 17.9366 52.4062 18.3365C53.1191 18.7364 53.9536 18.945 54.8925 18.945C55.9704 18.945 56.8919 18.719 57.6222 18.3017L57.6396 18.2843V16.1979L57.5526 16.2675C57.2223 16.5109 56.8398 16.7195 56.4573 16.8412C56.0574 16.9803 55.6923 17.0499 55.3793 17.0499C54.4752 17.0499 53.7624 16.7891 53.2582 16.2153C52.7366 15.659 52.4758 14.894 52.4758 13.9377C52.4758 12.9467 52.7366 12.1643 53.2755 11.5905C53.8145 11.0168 54.5274 10.7212 55.3967 10.7212C56.1269 10.7212 56.8745 10.9646 57.5526 11.4514L57.6396 11.521V9.31289L57.6222 9.2955C57.3266 9.1738 56.9962 9.0347 56.5442 8.94777ZM64.003 8.87823C63.4466 8.87823 62.925 9.05209 62.473 9.41721C62.0905 9.73017 61.8297 10.1822 61.6037 10.7212H61.5863V9.0347H59.326V18.6668H61.5863V13.7464C61.5863 12.9119 61.7602 12.2164 62.1427 11.7122C62.5252 11.1906 63.012 10.9298 63.6031 10.9298C63.8118 10.9298 64.0204 10.982 64.2812 11.0168C64.5246 11.0863 64.6985 11.1559 64.8202 11.2428L64.9071 11.3123V9.05209L64.8549 9.0347C64.6985 8.93039 64.3855 8.87823 64.003 8.87823ZM70.1578 8.82607C68.5757 8.82607 67.3064 9.2955 66.4197 10.217C65.5156 11.1385 65.081 12.4077 65.081 14.0072C65.081 15.5025 65.533 16.7195 66.4023 17.6062C67.2717 18.4756 68.454 18.9276 69.9318 18.9276C71.4792 18.9276 72.7136 18.4582 73.6004 17.5193C74.5045 16.5804 74.9391 15.3286 74.9391 13.7812C74.9391 12.2512 74.5218 11.0342 73.6699 10.1474C72.8527 9.26073 71.6531 8.82607 70.1578 8.82607ZM71.966 16.2327C71.5488 16.7717 70.8881 17.0325 70.0709 17.0325C69.2537 17.0325 68.593 16.7717 68.1236 16.1979C67.6542 15.659 67.4282 14.8766 67.4282 13.8855C67.4282 12.8597 67.6716 12.0773 68.1236 11.521C68.593 10.9646 69.2363 10.6864 70.0535 10.6864C70.8533 10.6864 71.4792 10.9472 71.9313 11.4862C72.3833 12.0252 72.6267 12.8076 72.6267 13.8334C72.5919 14.8766 72.4007 15.6937 71.966 16.2327ZM79.9812 13.0336C79.2684 12.738 78.8163 12.512 78.6077 12.3208C78.4338 12.1469 78.3469 11.9035 78.3469 11.5905C78.3469 11.3297 78.4512 11.0689 78.712 10.8951C78.9728 10.7212 79.2684 10.6343 79.703 10.6343C80.0855 10.6343 80.4854 10.7038 80.8679 10.8081C81.2504 10.9124 81.5981 11.0689 81.8763 11.2776L81.9633 11.3471V9.22596L81.9111 9.20857C81.6503 9.10425 81.3026 8.99993 80.8853 8.913C80.468 8.84345 80.0855 8.80868 79.7726 8.80868C78.6946 8.80868 77.8079 9.06948 77.1124 9.64323C76.417 10.1822 76.0866 10.9124 76.0866 11.7644C76.0866 12.2164 76.1562 12.6163 76.3127 12.9467C76.4691 13.277 76.6952 13.59 77.0081 13.8508C77.3211 14.0942 77.7731 14.3724 78.399 14.6332C78.9206 14.8592 79.3205 15.033 79.5639 15.1721C79.8073 15.3112 79.9638 15.4677 80.0855 15.5894C80.1725 15.7285 80.2246 15.9024 80.2246 16.1284C80.2246 16.7717 79.7378 17.0847 78.7468 17.0847C78.3643 17.0847 77.9644 17.0151 77.4949 16.8586C77.0255 16.7022 76.5908 16.4761 76.2257 16.2153L76.1388 16.1458V18.3539L76.1909 18.3713C76.5213 18.5277 76.9212 18.6321 77.408 18.7538C77.8948 18.8407 78.3295 18.9102 78.712 18.9102C79.8769 18.9102 80.8331 18.6494 81.5112 18.0757C82.2067 17.5193 82.5718 16.8065 82.5718 15.885C82.5718 15.2417 82.3979 14.6679 82.0154 14.2333C81.5112 13.816 80.8853 13.3813 79.9812 13.0336ZM88.5354 8.82607C86.9532 8.82607 85.684 9.2955 84.7973 10.217C83.9105 11.1385 83.4585 12.4077 83.4585 14.0072C83.4585 15.5025 83.9105 16.7195 84.7799 17.6062C85.6492 18.4756 86.8315 18.9276 88.3093 18.9276C89.8567 18.9276 91.0912 18.4582 91.9779 17.5193C92.882 16.5804 93.3167 15.3286 93.3167 13.7812C93.3167 12.2512 92.8994 11.0342 92.0474 10.1474C91.2303 9.26073 90.0306 8.82607 88.5354 8.82607ZM90.3262 16.2327C89.9089 16.7717 89.2482 17.0325 88.431 17.0325C87.5965 17.0325 86.9532 16.7717 86.4838 16.1979C86.0143 15.659 85.7883 14.8766 85.7883 13.8855C85.7883 12.8597 86.0317 12.0773 86.4838 11.521C86.9532 10.9646 87.5965 10.6864 88.4137 10.6864C89.196 10.6864 89.8393 10.9472 90.2914 11.4862C90.7434 12.0252 90.9869 12.8076 90.9869 13.8334C90.9869 14.8766 90.7608 15.6937 90.3262 16.2327ZM105.4 10.8951V9.0347H103.123V6.18332L103.053 6.20071L100.897 6.84401L100.845 6.86139V9.0347H97.4372V7.81765C97.4372 7.26128 97.5763 6.82662 97.8197 6.54844C98.0632 6.27025 98.4283 6.13116 98.8803 6.13116C99.1933 6.13116 99.5236 6.20071 99.8887 6.35718L99.9757 6.40934V4.44467L99.9235 4.42728C99.6106 4.32296 99.1933 4.25342 98.6543 4.25342C97.9762 4.25342 97.3851 4.4099 96.8461 4.67069C96.3071 4.96626 95.9072 5.36615 95.6117 5.90514C95.3161 6.42673 95.1596 7.01787 95.1596 7.69595V9.0347H93.5774V10.8777H95.1596V18.6668H97.4372V10.8951H100.845V15.8502C100.845 17.8844 101.801 18.9102 103.714 18.9102C104.027 18.9102 104.357 18.8581 104.67 18.8059C105 18.7364 105.244 18.6494 105.383 18.5799L105.4 18.5625V16.7022L105.313 16.7717C105.174 16.8586 105.053 16.9282 104.844 16.9803C104.67 17.0325 104.514 17.0499 104.392 17.0499C103.94 17.0499 103.627 16.9456 103.401 16.6848C103.192 16.4414 103.088 16.0415 103.088 15.4503V10.8951H105.4Z" fill="#868FAC"/>
<path d="M0.402344 0.758789H11.0603V11.4167H0.402344V0.758789Z" fill="#868FAC"/>
<path d="M12.1738 0.758789H22.8318V11.4167H12.1738V0.758789Z" fill="#868FAC"/>
<path d="M0.402344 12.5294H11.0603V23.1873H0.402344V12.5294Z" fill="#868FAC"/>
<path d="M12.1738 12.5294H22.8318V23.1873H12.1738V12.5294Z" fill="#868FAC"/>
</svg>
