<?xml version="1.0" encoding="UTF-8" standalone="no"?><svg width="83" height="24" viewBox="0 0 83 24" fill="none" xmlns="http://www.w3.org/2000/svg">
<path fill-rule="evenodd" clip-rule="evenodd" d="M43.9037 22.9084H55.1556C56.8369 22.9084 58.2167 22.214 59.3374 20.8248C60.4152 19.4797 60.9757 17.8742 60.9757 16.0522C60.9757 12.3636 56.2768 9.75979 54.4653 9.75979H48.3006C47.8264 9.75979 47.4376 9.54274 47.1365 9.19598C46.8345 8.8051 46.6623 8.37143 46.6623 7.8504C46.6623 7.24291 46.8345 6.72233 47.1365 6.28822C47.4815 5.85455 47.9123 5.59426 48.4299 5.59426H59.9839V0.950492H48.2139C46.1013 0.950492 44.4625 1.60166 43.2984 2.85988C42.2644 4.03163 41.7464 5.59382 41.7464 7.45997C41.7464 9.28245 42.2644 10.8883 43.2984 12.1893C44.4625 13.6214 45.8427 14.3599 47.524 14.3599H54.638C55.0684 14.3599 55.4138 14.49 55.6719 14.8363C55.9739 15.1835 56.1032 15.6177 56.1032 16.0954C56.1032 16.6597 55.8876 17.1803 55.5426 17.6144C55.1547 18.0048 54.7234 18.2219 54.1637 18.2219H42.7821L42.6098 17.9179L38.3417 4.11854L38.126 3.68443C37.0912 1.55799 35.367 0.516823 32.9958 0.516823C31.7024 0.516823 30.5382 0.820346 29.5034 1.47151C28.4257 2.12224 27.7358 3.07694 27.3479 4.29236L21.6137 22.8648L26.8303 22.9089L32.0898 6.37557C32.2191 5.85455 32.5211 5.59426 32.909 5.59426C33.1246 5.59426 33.2969 5.68073 33.4262 5.81131C33.5555 5.98469 33.6418 6.15851 33.6848 6.37557L38.9873 22.9089L43.9037 22.9084ZM5.10215 7.72026V22.8648H0.273438V6.07116C0.273438 3.90148 0.791066 2.38253 1.91179 1.47151C2.77392 0.820346 4.06733 0.473145 5.87793 0.473145C7.3436 0.473145 8.59406 0.907259 9.71478 1.73181C10.8355 2.55635 11.5683 3.68443 11.9567 5.07323L15.1036 16.2256L15.6213 17.7445C15.6642 18.0481 15.8369 18.2651 16.0092 18.4381C16.2248 18.6123 16.44 18.6992 16.699 18.6123C17.1303 18.5691 17.346 18.3084 17.346 17.9179V0.994167H22.304V17.7009C22.304 19.567 21.8731 20.9563 20.9676 21.9542C20.1055 22.9521 18.8121 23.4731 17.0874 23.4731C15.5783 23.4731 14.3279 23.1692 13.3364 22.6486C12.1294 22.0411 11.3531 21.0864 11.0082 19.8273L7.38699 7.11277L7.12839 6.28822C7.04205 5.98469 6.8698 5.76764 6.65416 5.55058C6.43852 5.37676 6.17992 5.33353 5.92133 5.37676C5.66273 5.42044 5.49048 5.55058 5.31779 5.81087C5.17604 6.0463 5.10144 6.31646 5.10215 6.59174V7.72026ZM82.2734 22.9084L76.6689 4.11854L76.4533 3.68443C75.4185 1.55799 73.6942 0.516823 71.323 0.516823C70.0296 0.516823 68.8655 0.820346 67.8311 1.47151C66.7525 2.12224 66.0635 3.07694 65.6747 4.29236L59.9409 22.8648L65.1575 22.9089L70.4171 6.37557C70.5464 5.85455 70.8484 5.59426 71.2363 5.59426C71.4519 5.59426 71.6242 5.68073 71.7534 5.81131C71.8836 5.98469 71.9691 6.15851 72.0129 6.37557L77.3154 22.9089L82.2734 22.9084Z" fill="#868FAC"/>
</svg>
