<?xml version="1.0" encoding="UTF-8" standalone="no"?><svg width="282" height="45" viewBox="0 0 282 45" fill="none" xmlns="http://www.w3.org/2000/svg">
<path fill-rule="evenodd" clip-rule="evenodd" d="M126.026 30.5051C129.367 33.8852 133.046 35.0682 138.234 35.0682C145.501 35.0682 150.633 31.2882 150.645 24.9337C150.645 21.931 149.664 19.5537 147.828 17.8637C146.324 16.506 144.577 15.7793 141.428 15.2948L137.31 14.6977C135.423 14.4104 134.403 13.9259 133.536 13.1485C132.654 12.3269 132.19 11.151 132.274 9.94867C132.274 6.79957 134.454 4.57436 138.521 4.57436C141.479 4.57436 143.997 5.20531 146.132 7.23898L149.422 3.94342C146.47 1.16612 143.321 0 138.719 0C131.547 0 127.187 4.07298 127.187 10.0782C127.187 12.94 128.066 15.1652 129.756 16.7144C131.254 18.1679 133.429 19.0411 136.246 19.4805L140.318 20.0438C142.059 20.2861 143.225 20.7198 144.093 21.4972C145.062 22.3197 145.451 23.5309 145.451 25.0801C145.451 28.4715 142.882 30.4094 138.33 30.4094C134.843 30.4094 131.981 29.5869 129.463 27.0687L126.026 30.5051ZM50.9944 21.1649H58.8475C65.5794 21.1649 69.889 16.7595 69.889 10.7486C69.889 4.73773 65.5794 0.281673 58.8475 0.281673H45.7666V34.7753H50.9944V21.1649ZM50.9946 4.97997H58.5547C62.239 4.97997 64.6614 7.11505 64.6614 10.7486C64.6614 14.3822 62.239 16.5116 58.5547 16.5116H50.9946V4.97997ZM81.0207 35.0682C83.7713 35.1588 86.4367 34.1065 88.3836 32.1614C90.7103 29.739 91.2905 26.5899 91.2905 22.4718C91.2905 18.3538 90.7103 15.2498 88.3836 12.8274C86.4367 10.8822 83.7713 9.82997 81.0207 9.92051C78.2813 9.82734 75.6271 10.8808 73.6972 12.8274C71.3537 15.2498 70.7904 18.3087 70.7904 22.4718C70.7904 26.635 71.3762 29.739 73.6972 32.1614C75.6271 34.1079 78.2813 35.1614 81.0207 35.0682ZM81.0207 14.3315C82.3714 14.2903 83.6816 14.7961 84.6543 15.7342C86.1584 17.2384 86.3443 19.8297 86.3443 22.4944C86.3443 25.159 86.1584 27.7278 84.6543 29.2263C83.6893 30.1819 82.3785 30.7062 81.0207 30.6798C79.6778 30.7061 78.3829 30.1808 77.4378 29.2263C75.9393 27.7278 75.7478 25.1815 75.7478 22.4944C75.7478 19.8072 75.9337 17.2384 77.4378 15.7342C78.3903 14.7967 79.6849 14.2898 81.0207 14.3315ZM104.23 14.3315C105.926 14.3315 106.788 14.8498 107.915 15.9765L111.638 12.2471C110.113 10.6663 107.979 9.82205 105.785 9.93177C103.025 9.93177 100.507 11.143 99.2449 12.8893V10.2247H94.3945V34.7753H99.3407V19.8523C99.3407 16.4609 101.566 14.3315 104.23 14.3315ZM121.582 34.7753C116.979 34.7753 114.821 31.4797 114.821 27.9475V13.9935H112.005V10.2247H114.821V3.18853H119.762V10.2247H124.511V14.0048H119.762V27.6884C119.762 29.4798 120.635 30.5446 122.472 30.5446H124.511V34.7584L121.582 34.7753ZM177.28 34.7753H173.043L167.297 17.6271L161.579 34.7753H157.32L149.709 10.2247H154.943L159.692 27.5194L165.41 10.2247H169.235L174.902 27.5194L179.651 10.2247H184.93L177.28 34.7753ZM186.366 5.36868V0.135202H191.6V5.36868H186.366ZM186.513 34.7753V10.2247H191.453V34.7866L186.513 34.7753ZM195.245 41.7551C197.813 44.1268 200.185 45 203.914 45C210.455 45 214.426 40.6453 214.415 34.6288V10.2247H209.621V12.8274C207.779 10.6022 205.796 9.92051 203.176 9.92051C200.709 9.92051 198.625 10.6979 197.267 12.0556C194.895 14.4273 194.507 17.8637 194.507 22.0324C194.507 26.2012 194.895 29.6432 197.267 32.0149C198.855 33.4998 200.971 34.287 203.143 34.2007C205.661 34.2007 207.695 33.5134 209.486 31.3839V34.5331C209.486 37.8286 207.886 40.7862 203.723 40.7862C201.714 40.8707 199.768 40.0745 198.394 38.606L195.245 41.7551ZM199.441 22.0324C199.441 18.1566 200.022 14.3315 204.478 14.3315H204.495C208.951 14.3315 209.469 18.1566 209.469 22.0324C209.469 25.9082 208.951 29.739 204.478 29.739C200.005 29.739 199.441 25.9082 199.441 22.0324ZM226.995 45C223.265 45 220.894 44.1268 218.325 41.7551L221.491 38.606C222.865 40.0745 224.811 40.8707 226.82 40.7862C230.983 40.7862 232.583 37.8286 232.583 34.5331V31.3839C230.792 33.5134 228.758 34.2007 226.24 34.2007C224.068 34.287 221.952 33.4998 220.364 32.0149C217.992 29.6432 217.604 26.2012 217.604 22.0324C217.604 17.8637 217.992 14.4273 220.364 12.0556C221.722 10.6979 223.806 9.92051 226.274 9.92051C228.893 9.92051 230.876 10.6022 232.718 12.8274V10.2247H237.512V34.6288C237.507 40.6453 233.535 45 226.995 45ZM227.558 14.3315C223.102 14.3315 222.522 18.1566 222.522 22.0324C222.522 25.9082 223.085 29.739 227.558 29.739C232.031 29.739 232.549 25.9082 232.549 22.0324C232.549 18.1566 232.037 14.3315 227.575 14.3315H227.558ZM251.641 30.8037C247.574 30.8037 245.393 28.1898 245.393 23.9253H261.331V21.8409C261.331 14.6695 257.505 9.92051 250.914 9.92051C244.616 9.92051 240.498 14.478 240.498 22.4718C240.498 31.8234 245.393 35.0682 251.545 35.0682C255.855 35.0682 258.232 33.7613 260.75 31.2375L257.601 28.2856C255.855 30.0263 254.401 30.8037 251.641 30.8037ZM250.892 14.0619C252.98 14.0619 254.878 15.2723 255.759 17.1651V17.1426C256.21 18.2059 256.434 19.3511 256.418 20.5058H245.394C245.348 19.3588 245.564 18.2165 246.025 17.1651C246.906 15.2723 248.804 14.0619 250.892 14.0619ZM274.056 14.3315C275.752 14.3315 276.614 14.8498 277.741 15.9765L281.47 12.2584C279.946 10.6712 277.809 9.82256 275.611 9.93177C272.845 9.93177 270.327 11.143 269.071 12.8893V10.2247H264.226V34.7753H269.167V19.8523C269.167 16.4609 271.392 14.3315 274.056 14.3315Z" fill="white"/>
<rect y="0.118301" width="34.8373" height="34.8373" fill="#FF6633"/>
<path d="M19.2889 34.9556H15.5483V29.401L20.5903 23.1816H15.5483V15.6272H6.4165L15.5483 4.36029V0.118301H19.2889V5.67852L14.247 11.8978H19.2889V19.4523H28.4264L19.2889 30.7192V34.9556V34.9556Z" fill="white"/>
</svg>
