<?xml version="1.0" encoding="UTF-8" standalone="no"?><svg width="90" height="80" viewBox="0 0 90 80" fill="none" xmlns="http://www.w3.org/2000/svg">
<g style="mix-blend-mode:multiply">
<path d="M0.0873535 63.458C0.0390787 54.5357 12.525 47.235 27.9756 47.1514C43.4261 47.0678 55.9903 54.233 56.0386 63.1553C56.0868 72.0776 43.6009 79.3784 28.1504 79.462C12.6999 79.5456 0.135628 72.3804 0.0873535 63.458Z" fill="#E5E6ED"/>
</g>
<path d="M84.4353 21.4862L84.4357 21.4864C87.2871 23.1521 88.486 25.1524 88.4701 27.0245C88.4542 28.9039 87.2413 30.8889 84.3745 32.5243L84.3741 32.5246L55.2964 49.1333C55.296 49.1335 55.2956 49.1338 55.2952 49.134C52.4184 50.7667 48.5867 51.5998 44.7079 51.5792C40.8283 51.5586 37.0118 50.6847 34.1649 49.0197L34.164 49.0192L5.17035 32.1029C5.16934 32.1023 5.16833 32.1017 5.16732 32.1011C2.34149 30.4235 1.11427 28.3723 1.13004 26.5516C1.14588 24.7216 2.3393 22.726 5.22856 21.0498C5.2296 21.0492 5.23063 21.0486 5.23167 21.048L34.355 4.44188C37.2206 2.80973 41.0519 1.97863 44.9345 2.00042C48.8167 2.0222 52.6385 2.89612 55.4858 4.55645C55.4859 4.55655 55.4861 4.55666 55.4863 4.55676L84.4353 21.4862Z" stroke="#7F85A7" stroke-width="2"/>
<path d="M89.43 26.5629C89.43 26.7229 89.43 26.8729 89.43 27.0329C89.3549 28.685 88.6372 30.2425 87.43 31.3729V39.8329C87.43 41.8329 86.02 43.7429 83.43 45.2229L55.1 61.6429C49.5 64.8729 40.03 64.8729 34.43 61.6429L5.99 45.2229C3.43 43.7429 1.99 41.8329 1.99 39.8329V30.8929C0.835434 29.7348 0.169611 28.1777 0.13 26.5429C0.13 26.4729 0.13 26.4029 0.13 26.3329C0.050729 26.4773 0.00621789 26.6382 0 26.8029V39.8029C0 42.5429 1.77 45.0729 5 46.9229L33.43 63.3729C36.918 65.226 40.821 66.1587 44.77 66.0829C48.7156 66.1574 52.6151 65.2247 56.1 63.3729L84.54 46.9629C87.74 45.1129 89.54 42.5829 89.54 39.8429V26.9629C89.5317 26.8233 89.4942 26.6871 89.43 26.5629Z" fill="#7F85A7"/>
<path d="M28.6595 38.2429L24.7695 35.9629L30.5495 32.6629L42.2895 31.9629L37.0695 28.9629L44.9795 24.4629L35.3595 18.8029L56.7095 17.7429L61.1995 15.1829L65.1095 17.4729L59.2395 20.8129L47.4995 21.3929L52.7995 24.4829L44.8995 28.9629L54.4295 34.5429L33.0795 35.7329L28.6595 38.2429Z" fill="#5B4FFF"/>
</svg>
