<?xml version="1.0" encoding="UTF-8" standalone="no"?><svg width="250" height="42" viewBox="0 0 250 42" fill="none" xmlns="http://www.w3.org/2000/svg">
<path d="M53.3748 19.8456H46.5252V31.7333H41.9424V1.62103H53.3748C59.2388 1.62103 63.0332 5.50173 63.0332 10.7579C63.0332 16.014 59.2881 19.8456 53.3748 19.8456ZM53.1284 5.74735H46.5252V15.8175H53.1284C56.3315 15.8175 58.4504 13.9509 58.4504 10.807C58.4504 7.66314 56.3315 5.74735 53.1284 5.74735Z" fill="white"/>
<path d="M79.1964 29.4246C78.3503 30.2644 77.3417 30.9239 76.232 31.363C75.1222 31.8021 73.9345 32.0117 72.741 31.979C71.5529 32.0273 70.368 31.8247 69.264 31.3844C68.16 30.9442 67.1618 30.2763 66.3349 29.4246C64.3145 27.3123 63.7725 24.6105 63.7725 20.9754C63.7725 17.3404 64.2652 14.6877 66.3349 12.5754C68.0731 10.938 70.374 10.0256 72.7656 10.0256C75.1572 10.0256 77.4581 10.938 79.1964 12.5754C81.2168 14.6877 81.7588 17.3895 81.7588 20.9754C81.7588 24.5614 81.266 27.3123 79.1964 29.4246ZM75.944 15.1298C75.5302 14.7215 75.0369 14.4019 74.4946 14.1907C73.9522 13.9795 73.3722 13.8811 72.7903 13.9018C72.2078 13.8767 71.6266 13.9729 71.0835 14.1844C70.5405 14.3958 70.0477 14.7178 69.6365 15.1298C68.306 16.4561 68.1582 18.6667 68.1582 21.0246C68.1582 23.3825 68.306 25.593 69.6365 26.8702C70.4809 27.6888 71.6124 28.1468 72.7903 28.1468C73.9682 28.1468 75.0996 27.6888 75.944 26.8702C77.2745 25.5439 77.4224 23.3333 77.4224 21.0246C77.4224 18.7158 77.2745 16.407 75.944 15.1298Z" fill="white"/>
<path d="M96.2954 15.3263C95.3098 14.3439 94.5707 13.9018 93.0923 13.9018C90.7763 13.9018 88.8052 15.7684 88.8052 18.7158V31.7333H84.4688V10.3158H88.7066V12.6246C89.7907 11.1018 92.0082 10.0702 94.4228 10.0702C95.3718 10.0215 96.3202 10.1761 97.2042 10.5235C98.0882 10.871 98.8873 11.4031 99.5477 12.0842L96.2954 15.3263Z" fill="white"/>
<path d="M108.27 31.7333C104.229 31.7333 102.356 28.8842 102.356 25.7895V13.607H99.8926V10.3158H102.356V4.17545H106.693V10.3158H110.832V13.607H106.693V25.5439C106.693 27.1158 107.432 28.0491 109.058 28.0491H110.832V31.7333H108.27Z" fill="white"/>
<path d="M122.808 31.979C118.274 31.979 115.071 30.9474 112.114 28L115.12 25.0035C117.338 27.214 119.802 27.9018 122.857 27.9018C126.848 27.9018 129.066 26.2316 129.066 23.2351C129.066 21.9088 128.721 20.8281 127.883 20.0912C127.144 19.4035 126.109 19.0597 124.582 18.814L121.034 18.3228C118.57 17.9298 116.648 17.193 115.367 15.9158C113.888 14.5895 113.1 12.6246 113.1 10.1193C113.1 4.86317 116.894 1.32632 123.202 1.32632C127.243 1.32632 130.002 2.3579 132.564 4.76492L129.706 7.61404C127.834 5.84562 125.616 5.30527 123.054 5.30527C119.506 5.30527 117.584 7.22106 117.584 9.97194C117.561 10.488 117.645 11.0034 117.831 11.4853C118.018 11.9673 118.303 12.4054 118.668 12.7719C119.407 13.4597 120.294 13.8526 121.97 14.0983L125.567 14.6386C128.327 15.0807 129.854 15.6702 131.185 16.8983C132.811 18.3719 133.649 20.4351 133.649 23.0386C133.649 28.6877 129.164 31.979 122.808 31.979Z" fill="white"/>
<path d="M156.956 31.7333H153.26L148.234 16.8L143.257 31.7333H139.512L132.859 10.3158H137.442L141.582 25.3965L146.559 10.3158H149.909L154.886 25.3965L159.026 10.3158H163.658L156.956 31.7333Z" fill="white"/>
<path d="M164.891 6.09125V1.52283H169.473V6.09125H164.891ZM165.038 31.7334V10.3158H169.375V31.7334H165.038Z" fill="white"/>
<path d="M180.265 40.6246C177.012 40.6246 174.943 39.8877 172.676 37.7754L175.435 35.0246C176.034 35.6572 176.762 36.1552 177.569 36.4856C178.376 36.8159 179.245 36.971 180.117 36.9404C183.763 36.9404 185.143 34.386 185.143 31.4877V28.7368C183.566 30.6035 181.792 31.193 179.575 31.193C178.634 31.2438 177.693 31.0998 176.811 30.7701C175.929 30.4403 175.125 29.932 174.45 29.2772C172.38 27.214 172.035 24.2176 172.035 20.5825C172.035 16.9474 172.38 13.9509 174.45 11.8877C175.632 10.7088 177.456 10.0211 179.624 10.0211C181.891 10.0211 183.665 10.6105 185.242 12.5754V10.3158H189.43V31.586C189.43 36.8421 185.981 40.6246 180.265 40.6246ZM180.757 13.9018C176.864 13.9018 176.372 17.2421 176.372 20.6316C176.372 24.0211 176.864 27.3614 180.757 27.3614C184.65 27.3614 185.143 24.0211 185.143 20.6316C185.143 17.2421 184.65 13.9018 180.757 13.9018Z" fill="white"/>
<path d="M200.42 40.6246C197.167 40.6246 195.098 39.8877 192.831 37.7754L195.591 35.0246C196.19 35.6572 196.917 36.1552 197.724 36.4856C198.531 36.8159 199.4 36.971 200.272 36.9404C203.919 36.9404 205.298 34.386 205.298 31.4877V28.7368C203.721 30.6035 201.947 31.193 199.73 31.193C198.789 31.2438 197.848 31.0998 196.966 30.7701C196.084 30.4403 195.28 29.932 194.605 29.2772C192.535 27.214 192.19 24.2176 192.19 20.5825C192.19 16.9474 192.535 13.9509 194.605 11.8877C195.788 10.7088 197.611 10.0211 199.779 10.0211C202.046 10.0211 203.82 10.6105 205.397 12.5754V10.3158H209.585V31.586C209.635 36.8421 206.185 40.6246 200.42 40.6246ZM200.913 13.9018C197.02 13.9018 196.527 17.2421 196.527 20.6316C196.527 24.0211 197.02 27.3614 200.913 27.3614C204.806 27.3614 205.298 24.0211 205.298 20.6316C205.298 17.2421 204.855 13.9018 200.913 13.9018Z" fill="white"/>
<path d="M216.534 22.2526C216.534 25.986 218.456 28.2456 222.004 28.2456C224.418 28.2456 225.699 27.5579 227.227 26.0351L229.987 28.5895C227.769 30.8 225.699 31.9298 221.954 31.9298C216.583 31.9298 212.296 29.0807 212.296 20.9263C212.296 13.9509 215.893 9.97192 221.412 9.97192C227.178 9.97192 230.529 14.0982 230.529 20.386V22.2035L216.534 22.2526ZM225.601 16.3579C225.339 15.7994 224.97 15.2978 224.514 14.8819C224.057 14.4659 223.523 14.1438 222.942 13.9339C222.361 13.724 221.744 13.6304 221.126 13.6587C220.508 13.6869 219.902 13.8362 219.343 14.0982C218.34 14.5571 217.536 15.3587 217.076 16.3579C216.679 17.271 216.493 18.2617 216.534 19.2561H226.192C226.191 18.2604 225.99 17.2749 225.601 16.3579Z" fill="white"/>
<path d="M244.819 15.3263C243.833 14.3439 243.094 13.9018 241.616 13.9018C239.3 13.9018 237.329 15.7684 237.329 18.7158V31.7333H232.992V10.3158H237.23V12.6246C238.314 11.1018 240.532 10.0702 242.946 10.0702C243.895 10.0215 244.844 10.1761 245.728 10.5235C246.612 10.871 247.411 11.4031 248.071 12.0842L244.819 15.3263Z" fill="white"/>
<path d="M32.3823 1.52283H1.92871V31.8807H32.3823V1.52283Z" fill="#FF6633"/>
<path d="M18.7817 31.8807H15.5293V27.0176L19.915 21.6141H15.5293V15.0316H7.49707L15.5293 5.20704V1.52283H18.7817V6.33686L14.3467 11.7895H18.7817V18.372H26.7646L18.7817 28.1965V31.8807Z" fill="white"/>
</svg>
