<?xml version="1.0" encoding="UTF-8" standalone="no"?><svg width="90" height="80" viewBox="0 0 90 80" fill="none" xmlns="http://www.w3.org/2000/svg">
<g clip-path="url(#clip0_54_2783)">
<g style="mix-blend-mode:multiply">
<g style="mix-blend-mode:multiply">
<path d="M0.0873535 63.458C0.0390787 54.5357 12.525 47.235 27.9756 47.1514C43.4261 47.0678 55.9903 54.233 56.0386 63.1553C56.0868 72.0776 43.6009 79.3784 28.1504 79.462C12.6999 79.5456 0.135628 72.3804 0.0873535 63.458Z" fill="#E5E6ED"/>
</g>
</g>
<path d="M69.0598 27.2C68.8392 27.1994 68.6251 27.1258 68.4507 26.9908C68.2763 26.8557 68.1514 26.6669 68.0955 26.4535C68.0396 26.2401 68.0558 26.0143 68.1416 25.8111C68.2273 25.6079 68.3779 25.4388 68.5698 25.33L74.5098 22C74.7431 21.8764 75.0141 21.8443 75.2698 21.91L82.7798 24.04L85.7198 23.47L68.9098 13.57L58.1898 17.88C58.0663 17.9293 57.9344 17.9537 57.8015 17.952C57.6686 17.9502 57.5374 17.9223 57.4153 17.8699C57.2932 17.8174 57.1826 17.7414 57.0898 17.6462C56.9971 17.551 56.924 17.4385 56.8748 17.315C56.8255 17.1916 56.8011 17.0596 56.8028 16.9268C56.8046 16.7939 56.8325 16.6626 56.8849 16.5405C56.9374 16.4184 57.0134 16.3078 57.1086 16.2151C57.2038 16.1223 57.3163 16.0493 57.4398 16L68.6198 11.51C68.762 11.4536 68.9154 11.4305 69.0679 11.4427C69.2205 11.4548 69.3682 11.5018 69.4998 11.58L88.9998 23.12C89.1695 23.2207 89.3057 23.3694 89.3911 23.5474C89.4766 23.7253 89.5074 23.9246 89.4798 24.12C89.4446 24.3204 89.3492 24.5053 89.2063 24.65C89.0634 24.7947 88.8797 24.8924 88.6798 24.93L82.9198 26.04C82.7651 26.0752 82.6045 26.0752 82.4498 26.04L75.1198 24L69.5498 27.1C69.3975 27.1743 69.2289 27.2087 69.0598 27.2Z" fill="#5B4FFF"/>
<path d="M62.62 69.78C62.4294 69.7825 62.242 69.7305 62.08 69.63L43 57.46C42.8773 57.3835 42.7726 57.2814 42.6932 57.1605C42.6138 57.0397 42.5615 56.903 42.54 56.76L41 45.73C40.9629 45.4648 41.0326 45.1957 41.1939 44.9819C41.3552 44.7681 41.5948 44.6271 41.86 44.59C42.1252 44.5529 42.3943 44.6226 42.6081 44.7839C42.8219 44.9452 42.9629 45.1848 43 45.45L44.47 56L61 66.56L60.09 63.17L54.89 57C54.753 56.8442 54.6721 56.6471 54.66 56.44L54.12 49.87C54.0988 49.6048 54.1838 49.342 54.3563 49.1395C54.5288 48.9369 54.7748 48.8112 55.04 48.79C55.3052 48.7688 55.568 48.8538 55.7705 49.0263C55.9731 49.1989 56.0988 49.4448 56.12 49.71L56.63 55.96L61.76 62.1C61.8574 62.2118 61.9261 62.3457 61.96 62.49L63.59 68.57C63.6308 68.7211 63.6355 68.8796 63.6039 69.0328C63.5723 69.186 63.5051 69.3297 63.4078 69.4523C63.3106 69.5748 63.1859 69.6729 63.0439 69.7385C62.9018 69.8041 62.7464 69.8354 62.59 69.83L62.62 69.78Z" fill="#5B4FFF"/>
<path d="M71.6298 29.32C71.4927 29.3196 71.3571 29.2909 71.2315 29.2359C71.1059 29.1808 70.993 29.1006 70.8998 29L69.5898 27.59C60.3998 18.05 41.7698 8.10002 26.2598 4.46002C26.0203 4.38288 25.8187 4.21831 25.6952 3.99913C25.5717 3.77995 25.5353 3.52226 25.5934 3.27747C25.6514 3.03267 25.7996 2.81874 26.0084 2.67835C26.2172 2.53796 26.4712 2.48143 26.7198 2.52002C40.1798 5.67002 60.2898 15.05 70.9998 26.22L72.3198 27.64C72.4519 27.7825 72.5397 27.9604 72.5723 28.1519C72.605 28.3434 72.5812 28.5403 72.5037 28.7185C72.4263 28.8968 72.2986 29.0485 72.1363 29.1554C71.974 29.2622 71.7841 29.3194 71.5898 29.32H71.6298Z" fill="#7F85A7"/>
<path d="M58.2303 52.51C58.1245 52.5285 58.0162 52.5285 57.9103 52.51L49.9103 49.82C40.8103 46.7 19.4003 33.21 13.6803 26.06C13.5146 25.8518 13.4383 25.5863 13.4683 25.3219C13.4983 25.0574 13.6321 24.8158 13.8403 24.65C14.0485 24.4842 14.314 24.408 14.5785 24.438C14.8429 24.468 15.0846 24.6018 15.2503 24.81C20.7903 31.81 41.6603 44.88 50.5803 47.88L58.5803 50.56C58.8069 50.6345 58.9994 50.7874 59.1231 50.9913C59.2468 51.1952 59.2936 51.4366 59.255 51.672C59.2164 51.9073 59.0949 52.1211 58.9125 52.2748C58.7301 52.4284 58.4988 52.5119 58.2603 52.51H58.2303Z" fill="#7F85A7"/>
<path d="M18.5296 30.37C18.3052 30.3715 18.0869 30.2976 17.9096 30.16C17.2696 29.64 2.1596 17.42 0.5096 2.59999C0.482026 2.36243 0.540508 2.12284 0.674439 1.9247C0.80837 1.72656 1.00888 1.58297 1.2396 1.51999C15.4096 -2.26001 32.7296 4.31999 32.8896 4.38999C33.1292 4.48804 33.3214 4.67517 33.4258 4.91202C33.5303 5.14887 33.5388 5.41699 33.4496 5.65999C33.3611 5.90401 33.1813 6.10408 32.948 6.21791C32.7148 6.33174 32.4464 6.35042 32.1996 6.26999C28.7996 5.15999 23.6296 8.62999 20.4196 14.16C17.0596 20 16.4996 26.43 19.1596 28.6C19.3175 28.7308 19.4314 28.907 19.4858 29.1048C19.5402 29.3025 19.5325 29.5122 19.4637 29.7054C19.3949 29.8985 19.2684 30.0659 19.1013 30.1848C18.9343 30.3037 18.7347 30.3684 18.5296 30.37ZM2.6096 3.23999C4.0096 12.52 11.1096 20.86 15.5396 25.24C15.1396 21.54 16.5396 16.88 18.6896 13.12C21.0396 9.06999 24.3296 6.11999 27.5196 4.75999C21.7296 3.21999 11.4896 1.16999 2.6096 3.23999Z" fill="#7F85A7"/>
<path d="M60.9999 53.25C59.8403 53.2582 58.6989 52.9616 57.6899 52.39C56.875 51.8904 56.1691 51.2318 55.6141 50.4535C55.0592 49.6753 54.6667 48.7932 54.4599 47.86C53.4599 44.23 54.3799 39.53 56.8499 35.27C60.9099 28.27 67.5999 24.86 72.0899 27.45C75.0899 29.22 76.3499 33.34 75.3799 38.23C75.3537 38.3613 75.3018 38.4862 75.2273 38.5974C75.1527 38.7087 75.057 38.8042 74.9456 38.8785C74.8342 38.9528 74.7092 39.0044 74.5778 39.0304C74.4464 39.0564 74.3112 39.0562 74.1799 39.03C74.0486 39.0037 73.9237 38.9518 73.8125 38.8773C73.7012 38.8028 73.6057 38.7071 73.5314 38.5957C73.4571 38.4842 73.4055 38.3593 73.3795 38.2279C73.3535 38.0965 73.3537 37.9613 73.3799 37.83C74.1799 33.83 73.2899 30.5 71.0399 29.18C67.6499 27.18 61.9199 30.46 58.5399 36.28C56.3699 40.03 55.5399 44.28 56.3499 47.35C56.4948 48.0266 56.7727 48.6677 57.1676 49.2359C57.5624 49.8042 58.0663 50.2882 58.6499 50.66C60.9999 52 64.4999 51 67.6099 48.14C67.8062 47.9557 68.0676 47.8568 68.3367 47.8653C68.6059 47.8737 68.8606 47.9887 69.0449 48.185C69.2292 48.3812 69.3281 48.6427 69.3196 48.9118C69.3112 49.1809 69.1962 49.4357 68.9999 49.62C66.3699 52 63.5499 53.25 60.9999 53.25Z" fill="#7F85A7"/>
<path d="M61.6797 43.86C61.6784 44.9753 61.8971 46.0799 62.3233 47.1105C62.7495 48.1412 63.3748 49.0776 64.1634 49.8663C64.9521 50.6549 65.8885 51.2802 66.9192 51.7064C67.9498 52.1326 69.0544 52.3513 70.1697 52.35C74.8697 52.35 87.6797 54.67 85.1697 50.74C79.7797 42.38 74.8997 35.36 70.1697 35.36C67.9171 35.3626 65.7576 36.2593 64.1657 37.8531C62.5738 39.4469 61.6797 41.6074 61.6797 43.86Z" fill="#5B4FFF"/>
<path d="M27.9202 25.22C26.8316 24.6022 25.9514 23.6747 25.3914 22.5554C24.8314 21.436 24.617 20.1754 24.7753 18.9339C24.9337 17.6923 25.4576 16.5259 26.2807 15.583C27.1037 14.64 28.1885 13.9631 29.3972 13.6383C30.606 13.3135 31.884 13.3556 33.0688 13.7591C34.2536 14.1625 35.2916 14.9092 36.0509 15.9042C36.8102 16.8992 37.2564 18.0975 37.3328 19.3468C37.4093 20.5961 37.1125 21.8399 36.4802 22.92C35.6496 24.3596 34.2813 25.4106 32.6762 25.8418C31.0711 26.2731 29.3604 26.0495 27.9202 25.22Z" fill="#5B4FFF"/>
<path d="M61.1302 38.63C60.9503 38.6331 60.7733 38.5845 60.6202 38.49L45.7102 29.75C45.5827 29.6924 45.4687 29.6086 45.3756 29.5042C45.2825 29.3997 45.2124 29.2769 45.1697 29.1437C45.127 29.0104 45.1128 28.8697 45.1279 28.7306C45.1431 28.5915 45.1872 28.4571 45.2576 28.3361C45.3279 28.2152 45.4228 28.1103 45.5362 28.0283C45.6496 27.9464 45.779 27.8891 45.9159 27.8602C46.0528 27.8314 46.1942 27.8316 46.3311 27.8608C46.4679 27.8901 46.5971 27.9477 46.7102 28.03L61.6102 36.77C61.7265 36.8336 61.829 36.9198 61.9116 37.0233C61.9943 37.1269 62.0556 37.2459 62.0919 37.3734C62.1282 37.5009 62.1388 37.6343 62.123 37.7659C62.1073 37.8975 62.0656 38.0247 62.0002 38.14C61.9109 38.2907 61.7835 38.4154 61.6308 38.5014C61.4781 38.5874 61.3055 38.6317 61.1302 38.63Z" fill="#7F85A7"/>
</g>
<defs>
<clipPath id="clip0_54_2783">
<rect width="90" height="80" fill="white"/>
</clipPath>
</defs>
</svg>
