<?xml version="1.0" encoding="UTF-8" standalone="no"?><svg width="115" height="33" viewBox="0 0 115 33" fill="none" xmlns="http://www.w3.org/2000/svg">
<path d="M100.109 11.7299C100.855 11.7299 101.502 11.3322 101.552 10.844L102.298 2.43832C102.298 1.59184 101.314 0.946167 100.109 0.946167C98.866 0.946167 97.9201 1.64302 97.9201 2.43832L98.6662 10.844C98.7154 11.3411 99.3631 11.7299 100.109 11.7299ZM95.5323 14.3677C95.9299 13.721 95.8807 12.975 95.4831 12.6768L88.5686 7.85182C87.8717 7.45417 86.7772 7.95029 86.1807 8.99559C85.5842 10.0409 85.6837 11.2338 86.3795 11.6315L94.0401 15.2142C94.5372 15.3638 95.1839 15.0154 95.5323 14.3677ZM104.637 14.3667C105.034 15.0134 105.68 15.351 106.129 15.1541L113.79 11.5714C114.486 11.1737 114.636 9.97983 113.988 8.93552C113.392 7.89219 112.297 7.39317 111.601 7.7918L104.686 12.6167C104.288 12.9651 104.238 13.7112 104.637 14.3589M100.109 22.2163C100.855 22.2163 101.502 22.614 101.552 23.1022L102.298 31.5078C102.298 32.3543 101.314 33 100.109 33C98.866 33 97.9201 32.3031 97.9201 31.5078L98.6662 23.1022C98.7154 22.6051 99.3631 22.2163 100.109 22.2163ZM104.637 19.5883C105.034 18.9416 105.68 18.604 106.129 18.8009L113.79 22.3325C114.486 22.7301 114.636 23.924 113.988 24.9683C113.392 26.0117 112.297 26.5107 111.601 26.1121L104.686 21.2872C104.288 20.9889 104.238 20.2438 104.637 19.5962M95.5323 19.5982C95.9299 20.2448 95.8807 20.9909 95.4831 21.2892L88.5686 26.114C87.8717 26.5117 86.7772 26.0156 86.1807 24.9703C85.5842 23.925 85.6837 22.7321 86.3795 22.3345L94.0401 18.8029C94.5372 18.6041 95.1839 18.9525 95.5323 19.5903" fill="#868FAC"/>
<path d="M63.5931 20.4977C63.5931 20.7064 63.5931 20.9564 63.5094 21.1228C63.2594 21.9141 62.4267 22.6228 61.3854 22.6228C60.4995 22.6228 59.8026 22.1228 59.8026 21.0814C59.8026 19.4574 61.594 19.04 63.5921 19.04L63.5931 20.4977ZM66.7585 17.7063C66.7585 15.0488 65.6335 12.7062 61.8017 12.7062C59.8332 12.7062 58.2613 13.2476 57.4276 13.7476L58.0526 15.8716C58.844 15.3716 60.0507 14.9563 61.2613 14.9563C63.2299 14.9563 63.5104 16.039 63.5104 16.7477V16.915C59.2613 16.915 56.5959 18.3717 56.5959 21.3718C56.5959 23.2045 57.9709 24.9122 60.3361 24.9122C61.7929 24.9122 62.9937 24.3295 63.7516 23.4122H63.8352C63.8352 23.4122 64.3352 25.4536 67.0006 24.6622C66.8756 23.8295 66.8333 22.9122 66.8333 21.8295L66.7496 17.6955M0.724609 9.08313L3.93335 22.2468C4.43336 24.4122 5.39007 25.2045 8.06729 24.6632L9.77501 17.6237L10.775 12.8745H10.8164C11.025 14.6659 11.3164 15.9258 11.6491 17.665L12.7318 22.5391C13.1058 24.2055 14.1068 25.2882 16.7309 24.7045L20.8648 9.12542H17.5321L16.1147 15.8736L15.1147 21.1641H15.0733L14.158 15.9986L12.7012 9.12542H9.23169L7.64897 15.8323L6.52394 21.2478H6.48261C6.18145 19.3537 5.84805 17.4649 5.48258 15.5823L4.23257 9.12542L0.73347 9.08409M27.1868 20.4977C27.1868 20.7064 27.1868 20.9564 27.1031 21.1228C26.8531 21.9141 26.0204 22.6228 24.9791 22.6228C24.0932 22.6228 23.3964 22.1228 23.3964 21.0814C23.3964 19.4574 25.1877 19.04 27.1858 19.04L27.1868 20.4977ZM30.3522 17.7063C30.3522 15.0488 29.2272 12.7062 25.3954 12.7062C23.4269 12.7062 21.855 13.2476 21.0213 13.7476L21.6463 15.8716C22.4377 15.3716 23.6444 14.9563 24.8551 14.9563C26.8236 14.9563 27.1041 16.039 27.1041 16.7477V16.915C22.855 16.915 20.1896 18.3717 20.1896 21.3718C20.1896 23.2045 21.5646 24.9122 23.9298 24.9122C25.3866 24.9122 26.5874 24.3295 27.3453 23.4122H27.4289C27.4289 23.4122 27.9289 25.4536 30.5943 24.6622C30.4693 23.8295 30.427 22.9122 30.427 21.8295V17.6955M35.5905 21.3727V9.08409H32.4251V24.6632H35.5905V21.3727Z" fill="#868FAC"/>
<path d="M77.0483 9.08409V20.5804C77.0483 22.1631 77.3396 23.2872 77.9637 23.9545C78.505 24.5372 79.4204 24.9122 80.5464 24.9122C81.4618 24.9122 82.4204 24.7449 82.8378 24.5776L82.7964 22.1198C82.4618 22.2035 82.0878 22.2448 81.5887 22.2448C80.506 22.2448 80.132 21.5361 80.132 20.1208V15.7053H82.8811V12.7062H80.132V9.04077H77.0493M68.8424 12.9582V24.6632H72.0905V18.665C72.0905 18.3304 72.0905 18.04 72.1742 17.7791C72.4242 16.5291 73.3819 15.7378 74.7569 15.7378C75.1309 15.7378 75.4232 15.7791 75.7146 15.8215V12.7387C75.4646 12.6974 75.2982 12.655 75.0059 12.655C73.7982 12.655 72.3818 13.4464 71.7972 15.1128H71.7135V12.9051H68.8394M37.8506 12.9582V24.6632H41.016V17.79C41.016 17.4554 41.0574 17.1236 41.1834 16.8323C41.4334 16.1236 42.0987 15.3323 43.0997 15.3323C44.3911 15.3323 44.9738 16.415 44.9738 17.9898V24.6533H48.1392V17.6965C48.1392 17.4051 48.1805 17.0301 48.2642 16.7388C48.5142 15.9474 49.2219 15.3215 50.1806 15.3215C51.4719 15.3215 52.097 16.4041 52.097 18.2369V24.6523H55.2624V17.7378C55.2624 14.1137 53.4297 12.656 51.3469 12.656C50.54 12.6483 49.7468 12.8646 49.0556 13.281C48.5142 13.6157 48.0142 14.1137 47.5555 14.7378H47.5142C47.0142 13.4877 45.8478 12.655 44.3055 12.655C42.3074 12.655 41.4314 13.655 40.89 14.5291H40.8487V12.9464H37.8496" fill="#868FAC"/>
</svg>
