<?xml version="1.0" encoding="UTF-8" standalone="no"?><svg width="24" height="25" viewBox="0 0 24 25" fill="none" xmlns="http://www.w3.org/2000/svg">
<g clip-path="url(#clip0_170_4061)">
<path fill-rule="evenodd" clip-rule="evenodd" d="M11.9241 5.03136L11.9996 5.03125L12.0753 5.03135L12.2943 5.03206C12.4842 5.03287 12.7578 5.0345 13.0917 5.03776C13.7598 5.04429 14.6675 5.05734 15.6275 5.08338C16.5889 5.10947 17.5955 5.14841 18.4638 5.20623C19.3422 5.26473 20.0046 5.33845 20.3445 5.41842C20.6391 5.50498 20.9065 5.66634 21.1205 5.88691C21.3316 6.10458 21.4835 6.37245 21.562 6.66502C21.8639 8.35133 22.0103 10.0618 21.9996 11.775L21.9996 11.7848C22.0057 13.4722 21.8592 15.1566 21.562 16.8175C21.4835 17.1101 21.3316 17.3779 21.1205 17.5956C20.904 17.8187 20.6329 17.9813 20.3342 18.0671C20.0055 18.1536 19.3456 18.2351 18.4575 18.2998C17.591 18.363 16.5858 18.4056 15.6249 18.4342C14.6656 18.4627 13.7585 18.477 13.0908 18.4841C12.7571 18.4877 12.4836 18.4895 12.2939 18.4904C12.199 18.4908 12.1251 18.491 12.0751 18.4911H11.9241C11.8741 18.491 11.8002 18.4908 11.7053 18.4904C11.5155 18.4895 11.2421 18.4877 10.9084 18.4841C10.2407 18.477 9.33357 18.4627 8.3743 18.4342C7.41342 18.4056 6.4082 18.363 5.54172 18.2998C4.64979 18.2348 3.98806 18.1529 3.66073 18.0659C3.36653 17.9849 3.09808 17.8296 2.88117 17.615C2.67413 17.4101 2.5207 17.1576 2.43407 16.88C2.1343 15.1993 1.98892 13.4947 1.99964 11.7875L1.99958 11.7763C1.99118 10.0761 2.13766 8.37862 2.4372 6.705C2.51569 6.41244 2.6676 6.14458 2.87873 5.92691C3.09517 5.70378 3.36625 5.54125 3.66495 5.45544C3.99372 5.36886 4.65361 5.28744 5.54172 5.22266C6.4082 5.15946 7.41342 5.11686 8.3743 5.08831C9.33357 5.0598 10.2407 5.04552 10.9084 5.03838C11.2421 5.03481 11.5155 5.03303 11.7053 5.03214C11.8002 5.03169 11.8741 5.03147 11.9241 5.03136ZM12.0793 3.03135L11.9995 3.03125L11.9197 3.03136C11.8681 3.03148 11.7925 3.03171 11.6959 3.03216C11.5027 3.03307 11.2252 3.03488 10.887 3.03849C10.211 3.04573 9.29062 3.0602 8.31489 3.08919C7.34077 3.11814 6.30349 3.16179 5.39622 3.22796C4.51692 3.2921 3.67488 3.38248 3.14123 3.5252L3.12736 3.52902C2.48727 3.71011 1.90631 4.05691 1.44315 4.5344C0.97999 5.01188 0.651039 5.60314 0.48952 6.24844C0.48411 6.27006 0.479424 6.29185 0.475469 6.31378C0.150161 8.11768 -0.00913417 9.94761 -0.00041991 11.7806C-0.0116703 13.6274 0.147638 15.4713 0.475477 17.2888C0.481335 17.3212 0.488797 17.3534 0.497836 17.3851C0.675903 18.0104 1.01222 18.5792 1.47431 19.0365C1.93639 19.4938 2.5086 19.8242 3.13567 19.9958L3.14123 19.9973C3.67488 20.14 4.51692 20.2304 5.39622 20.2945C6.30349 20.3607 7.34077 20.4044 8.31489 20.4333C9.29062 20.4623 10.211 20.4768 10.887 20.484C11.2252 20.4876 11.5027 20.4894 11.6959 20.4903C11.7925 20.4908 11.8681 20.491 11.9197 20.4911L12 20.4912L12.0795 20.4911C12.1311 20.491 12.2067 20.4908 12.3033 20.4903C12.4965 20.4894 12.774 20.4876 13.1122 20.484C13.7881 20.4768 14.7086 20.4623 15.6843 20.4333C16.6584 20.4044 17.6957 20.3607 18.603 20.2945C19.4823 20.2304 20.3243 20.14 20.858 19.9973L20.8718 19.9935C21.5119 19.8124 22.0929 19.4656 22.556 18.9881C23.0192 18.5106 23.3482 17.9194 23.5097 17.2741C23.5151 17.2524 23.5198 17.2306 23.5237 17.2087C23.8466 15.4182 24.0058 13.602 23.9996 11.7826C24.0109 9.93557 23.8516 8.09146 23.5237 6.27374L22.5396 6.45125L23.5097 6.20844C23.3482 5.56314 23.0192 4.97188 22.556 4.4944C22.0929 4.01691 21.5119 3.67011 20.8718 3.48902C20.8602 3.48573 20.8485 3.48266 20.8368 3.47979C20.3111 3.35142 19.4763 3.26923 18.5967 3.21065C17.6912 3.15034 16.6553 3.11053 15.6817 3.08412C14.7067 3.05766 13.7869 3.04446 13.1112 3.03786C12.7732 3.03456 12.4959 3.03291 12.3029 3.03208C12.2063 3.03167 12.1308 3.03146 12.0793 3.03135ZM10.244 7.64198C9.93443 7.46594 9.55463 7.4678 9.24682 7.64685C8.939 7.82591 8.74963 8.15514 8.74963 8.51125V15.0512C8.74963 15.4073 8.939 15.7366 9.24682 15.9156C9.55463 16.0947 9.93443 16.0965 10.244 15.9205L15.994 12.6505C16.3066 12.4727 16.4996 12.1408 16.4996 11.7812C16.4996 11.4217 16.3066 11.0897 15.994 10.912L10.244 7.64198ZM13.4768 11.7812L10.7496 13.3322V10.2303L13.4768 11.7812Z" fill="#D84104"/>
</g>
<defs>
<clipPath id="clip0_170_4061">
<rect width="24" height="24" fill="white" transform="translate(0 0.03125)"/>
</clipPath>
</defs>
</svg>
